<svg xmlns="http://www.w3.org/2000/svg" xmlns:xlink="http://www.w3.org/1999/xlink" width="1000" height="149" viewBox="0 0 1000 149" role="img" aria-labelledby="title desc">
<title id="title">PSINS formula 120</title>
<desc id="desc">LaTeX source: \mathbf{F}_{SINS/DR} = \begin{bmatrix}
\mathbf{M}_{aa} &amp; \mathbf{M}_{av} &amp; \mathbf{M}_{ap} &amp; \mathbf{0}_{3 \times 3} &amp; - \mathbf{C}_{b}^{n} &amp; \mathbf{0}_{3 \times 3} &amp; \mathbf{0}_{3 \times 2} &amp; \mathbf{0}_{3 \times 1} &amp; \mathbf{0}_{3 \times 1} \\
\mathbf{M}_{va} &amp; \mathbf{M}_{vv} &amp; \mathbf{M}_{vp} &amp; \mathbf{0}_{3 \times 3} &amp; \mathbf{0}_{3 \times 3} &amp; \mathbf{C}_{b}^{n} &amp; \mathbf{0}_{3 \times 2} &amp; \mathbf{0}_{3 \times 1} &amp; \mathbf{0}_{3 \times 1} \\
\mathbf{0}_{3 \times 3} &amp; \mathbf{M}_{pv} &amp; \mathbf{M}_{pp} &amp; \mathbf{0}_{3 \times 3} &amp; \mathbf{0}_{3 \times 3} &amp; \mathbf{0}_{3 \times 3} &amp; \mathbf{0}_{3 \times 2} &amp; \mathbf{0}_{3 \times 1} &amp; \mathbf{0}_{3 \times 1} \\
\mathbf{M}_{Dpa} &amp; \mathbf{0}_{3 \times 3} &amp; \mathbf{0}_{3 \times 3} &amp; \mathbf{M}_{Dpp} &amp; \mathbf{0}_{3 \times 3} &amp; \mathbf{0}_{3 \times 3} &amp; \mathbf{M}_{Dpi} &amp; \mathbf{M}_{Dpk} &amp; \mathbf{0}_{3 \times 1} \\
 &amp; &amp; &amp; &amp; \mathbf{0}_{10 \times 22} &amp; &amp; &amp; &amp;
\end{bmatrix}</desc>
<style>svg{color:#1f2328}.eqno{fill:currentColor;font:18px "Times New Roman",serif}@media(prefers-color-scheme:dark){svg{color:#f0f6fc}}</style>
<svg x="160.119" y="8.142" width="679.761" height="132.715" viewBox="0 -3660.5 34936.8 6820.9" preserveAspectRatio="xMidYMid meet"><defs><path id="MJX-60-TEX-B-1D405" d="M425 0L228 3Q63 3 51 0H39V62H147V618H39V680H644V676Q647 670 659 552T675 428V424H613Q613 433 605 477Q599 511 589 535T562 574T530 599T488 612T441 617T387 618H368H304V371H333Q389 373 411 390T437 468V488H499V192H437V212Q436 244 430 263T408 292T378 305T333 309H304V62H439V0H425Z"></path><path id="MJX-60-TEX-I-1D446" d="M308 24Q367 24 416 76T466 197Q466 260 414 284Q308 311 278 321T236 341Q176 383 176 462Q176 523 208 573T273 648Q302 673 343 688T407 704H418H425Q521 704 564 640Q565 640 577 653T603 682T623 704Q624 704 627 704T632 705Q645 705 645 698T617 577T585 459T569 456Q549 456 549 465Q549 471 550 475Q550 478 551 494T553 520Q553 554 544 579T526 616T501 641Q465 662 419 662Q362 662 313 616T263 510Q263 480 278 458T319 427Q323 425 389 408T456 390Q490 379 522 342T554 242Q554 216 546 186Q541 164 528 137T492 78T426 18T332 -20Q320 -22 298 -22Q199 -22 144 33L134 44L106 13Q83 -14 78 -18T65 -22Q52 -22 52 -14Q52 -11 110 221Q112 227 130 227H143Q149 221 149 216Q149 214 148 207T144 186T142 153Q144 114 160 87T203 47T255 29T308 24Z"></path><path id="MJX-60-TEX-I-1D43C" d="M43 1Q26 1 26 10Q26 12 29 24Q34 43 39 45Q42 46 54 46H60Q120 46 136 53Q137 53 138 54Q143 56 149 77T198 273Q210 318 216 344Q286 624 286 626Q284 630 284 631Q274 637 213 637H193Q184 643 189 662Q193 677 195 680T209 683H213Q285 681 359 681Q481 681 487 683H497Q504 676 504 672T501 655T494 639Q491 637 471 637Q440 637 407 634Q393 631 388 623Q381 609 337 432Q326 385 315 341Q245 65 245 59Q245 52 255 50T307 46H339Q345 38 345 37T342 19Q338 6 332 0H316Q279 2 179 2Q143 2 113 2T65 2T43 1Z"></path><path id="MJX-60-TEX-I-1D441" d="M234 637Q231 637 226 637Q201 637 196 638T191 649Q191 676 202 682Q204 683 299 683Q376 683 387 683T401 677Q612 181 616 168L670 381Q723 592 723 606Q723 633 659 637Q635 637 635 648Q635 650 637 660Q641 676 643 679T653 683Q656 683 684 682T767 680Q817 680 843 681T873 682Q888 682 888 672Q888 650 880 642Q878 637 858 637Q787 633 769 597L620 7Q618 0 599 0Q585 0 582 2Q579 5 453 305L326 604L261 344Q196 88 196 79Q201 46 268 46H278Q284 41 284 38T282 19Q278 6 272 0H259Q228 2 151 2Q123 2 100 2T63 2T46 1Q31 1 31 10Q31 14 34 26T39 40Q41 46 62 46Q130 49 150 85Q154 91 221 362L289 634Q287 635 234 637Z"></path><path id="MJX-60-TEX-N-2F" d="M423 750Q432 750 438 744T444 730Q444 725 271 248T92 -240Q85 -250 75 -250Q68 -250 62 -245T56 -231Q56 -221 230 257T407 740Q411 750 423 750Z"></path><path id="MJX-60-TEX-I-1D437" d="M287 628Q287 635 230 637Q207 637 200 638T193 647Q193 655 197 667T204 682Q206 683 403 683Q570 682 590 682T630 676Q702 659 752 597T803 431Q803 275 696 151T444 3L430 1L236 0H125H72Q48 0 41 2T33 11Q33 13 36 25Q40 41 44 43T67 46Q94 46 127 49Q141 52 146 61Q149 65 218 339T287 628ZM703 469Q703 507 692 537T666 584T629 613T590 629T555 636Q553 636 541 636T512 636T479 637H436Q392 637 386 627Q384 623 313 339T242 52Q242 48 253 48T330 47Q335 47 349 47T373 46Q499 46 581 128Q617 164 640 212T683 339T703 469Z"></path><path id="MJX-60-TEX-I-1D445" d="M230 637Q203 637 198 638T193 649Q193 676 204 682Q206 683 378 683Q550 682 564 680Q620 672 658 652T712 606T733 563T739 529Q739 484 710 445T643 385T576 351T538 338L545 333Q612 295 612 223Q612 212 607 162T602 80V71Q602 53 603 43T614 25T640 16Q668 16 686 38T712 85Q717 99 720 102T735 105Q755 105 755 93Q755 75 731 36Q693 -21 641 -21H632Q571 -21 531 4T487 82Q487 109 502 166T517 239Q517 290 474 313Q459 320 449 321T378 323H309L277 193Q244 61 244 59Q244 55 245 54T252 50T269 48T302 46H333Q339 38 339 37T336 19Q332 6 326 0H311Q275 2 180 2Q146 2 117 2T71 2T50 1Q33 1 33 10Q33 12 36 24Q41 43 46 45Q50 46 61 46H67Q94 46 127 49Q141 52 146 61Q149 65 218 339T287 628Q287 635 230 637ZM630 554Q630 586 609 608T523 636Q521 636 500 636T462 637H440Q393 637 386 627Q385 624 352 494T319 361Q319 360 388 360Q466 361 492 367Q556 377 592 426Q608 449 619 486T630 554Z"></path><path id="MJX-60-TEX-N-3D" d="M56 347Q56 360 70 367H707Q722 359 722 347Q722 336 708 328L390 327H72Q56 332 56 347ZM56 153Q56 168 72 173H708Q722 163 722 153Q722 140 707 133H70Q56 140 56 153Z"></path><path id="MJX-60-TEX-S4-23A1" d="M319 -645V1154H666V1070H403V-645H319Z"></path><path id="MJX-60-TEX-S4-23A3" d="M319 -644V1155H403V-560H666V-644H319Z"></path><path id="MJX-60-TEX-S4-23A2" d="M319 0V602H403V0H319Z"></path><path id="MJX-60-TEX-B-1D40C" d="M314 0Q296 3 181 3T48 0H39V62H147V624H39V686H305Q316 679 323 667Q330 653 434 414L546 157L658 414Q766 662 773 674Q778 681 788 686H1052V624H944V62H1052V0H1040Q1016 3 874 3T708 0H696V62H804V341L803 618L786 580Q770 543 735 462T671 315Q540 13 536 9Q528 1 507 1Q485 1 477 9Q472 14 408 162T281 457T217 603Q215 603 215 334V62H323V0H314Z"></path><path id="MJX-60-TEX-I-1D44E" d="M33 157Q33 258 109 349T280 441Q331 441 370 392Q386 422 416 422Q429 422 439 414T449 394Q449 381 412 234T374 68Q374 43 381 35T402 26Q411 27 422 35Q443 55 463 131Q469 151 473 152Q475 153 483 153H487Q506 153 506 144Q506 138 501 117T481 63T449 13Q436 0 417 -8Q409 -10 393 -10Q359 -10 336 5T306 36L300 51Q299 52 296 50Q294 48 292 46Q233 -10 172 -10Q117 -10 75 30T33 157ZM351 328Q351 334 346 350T323 385T277 405Q242 405 210 374T160 293Q131 214 119 129Q119 126 119 118T118 106Q118 61 136 44T179 26Q217 26 254 59T298 110Q300 114 325 217T351 328Z"></path><path id="MJX-60-TEX-I-1D463" d="M173 380Q173 405 154 405Q130 405 104 376T61 287Q60 286 59 284T58 281T56 279T53 278T49 278T41 278H27Q21 284 21 287Q21 294 29 316T53 368T97 419T160 441Q202 441 225 417T249 361Q249 344 246 335Q246 329 231 291T200 202T182 113Q182 86 187 69Q200 26 250 26Q287 26 319 60T369 139T398 222T409 277Q409 300 401 317T383 343T365 361T357 383Q357 405 376 424T417 443Q436 443 451 425T467 367Q467 340 455 284T418 159T347 40T241 -11Q177 -11 139 22Q102 54 102 117Q102 148 110 181T151 298Q173 362 173 380Z"></path><path id="MJX-60-TEX-I-1D45D" d="M23 287Q24 290 25 295T30 317T40 348T55 381T75 411T101 433T134 442Q209 442 230 378L240 387Q302 442 358 442Q423 442 460 395T497 281Q497 173 421 82T249 -10Q227 -10 210 -4Q199 1 187 11T168 28L161 36Q160 35 139 -51T118 -138Q118 -144 126 -145T163 -148H188Q194 -155 194 -157T191 -175Q188 -187 185 -190T172 -194Q170 -194 161 -194T127 -193T65 -192Q-5 -192 -24 -194H-32Q-39 -187 -39 -183Q-37 -156 -26 -148H-6Q28 -147 33 -136Q36 -130 94 103T155 350Q156 355 156 364Q156 405 131 405Q109 405 94 377T71 316T59 280Q57 278 43 278H29Q23 284 23 287ZM178 102Q200 26 252 26Q282 26 310 49T356 107Q374 141 392 215T411 325V331Q411 405 350 405Q339 405 328 402T306 393T286 380T269 365T254 350T243 336T235 326L232 322Q232 321 229 308T218 264T204 212Q178 106 178 102Z"></path><path id="MJX-60-TEX-B-1D7CE" d="M266 654H280H282Q500 654 524 418Q529 370 529 320Q529 125 456 52Q397 -10 287 -10Q110 -10 63 154Q45 212 45 316Q45 504 113 585Q140 618 185 636T266 654ZM374 548Q347 604 286 604Q247 604 218 575Q197 552 193 511T188 311Q188 159 196 116Q202 87 225 64T287 41Q339 41 367 87Q379 107 382 152T386 329Q386 518 374 548Z"></path><path id="MJX-60-TEX-N-33" d="M127 463Q100 463 85 480T69 524Q69 579 117 622T233 665Q268 665 277 664Q351 652 390 611T430 522Q430 470 396 421T302 350L299 348Q299 347 308 345T337 336T375 315Q457 262 457 175Q457 96 395 37T238 -22Q158 -22 100 21T42 130Q42 158 60 175T105 193Q133 193 151 175T169 130Q169 119 166 110T159 94T148 82T136 74T126 70T118 67L114 66Q165 21 238 21Q293 21 321 74Q338 107 338 175V195Q338 290 274 322Q259 328 213 329L171 330L168 332Q166 335 166 348Q166 366 174 366Q202 366 232 371Q266 376 294 413T322 525V533Q322 590 287 612Q265 626 240 626Q208 626 181 615T143 592T132 580H135Q138 579 143 578T153 573T165 566T175 555T183 540T186 520Q186 498 172 481T127 463Z"></path><path id="MJX-60-TEX-N-D7" d="M630 29Q630 9 609 9Q604 9 587 25T493 118L389 222L284 117Q178 13 175 11Q171 9 168 9Q160 9 154 15T147 29Q147 36 161 51T255 146L359 250L255 354Q174 435 161 449T147 471Q147 480 153 485T168 490Q173 490 175 489Q178 487 284 383L389 278L493 382Q570 459 587 475T609 491Q630 491 630 471Q630 464 620 453T522 355L418 250L522 145Q606 61 618 48T630 29Z"></path><path id="MJX-60-TEX-N-2212" d="M84 237T84 250T98 270H679Q694 262 694 250T679 230H98Q84 237 84 250Z"></path><path id="MJX-60-TEX-B-1D402" d="M64 343Q64 502 174 599T468 697Q502 697 533 691T586 674T623 655T647 639T657 632L694 663Q703 670 711 677T723 687T730 692T735 695T740 696T746 697Q759 697 762 692T766 668V627V489V449Q766 428 762 424T742 419H732H720Q699 419 697 436Q690 498 657 545Q611 618 532 632Q522 634 496 634Q356 634 286 553Q232 488 232 343T286 133Q355 52 497 52Q597 52 650 112T704 237Q704 248 709 251T729 254H735Q750 254 755 253T763 248T766 234Q766 136 680 63T469 -11Q285 -11 175 86T64 343Z"></path><path id="MJX-60-TEX-I-1D45B" d="M21 287Q22 293 24 303T36 341T56 388T89 425T135 442Q171 442 195 424T225 390T231 369Q231 367 232 367L243 378Q304 442 382 442Q436 442 469 415T503 336T465 179T427 52Q427 26 444 26Q450 26 453 27Q482 32 505 65T540 145Q542 153 560 153Q580 153 580 145Q580 144 576 130Q568 101 554 73T508 17T439 -10Q392 -10 371 17T350 73Q350 92 386 193T423 345Q423 404 379 404H374Q288 404 229 303L222 291L189 157Q156 26 151 16Q138 -11 108 -11Q95 -11 87 -5T76 7T74 17Q74 30 112 180T152 343Q153 348 153 366Q153 405 129 405Q91 405 66 305Q60 285 60 284Q58 278 41 278H27Q21 284 21 287Z"></path><path id="MJX-60-TEX-I-1D44F" d="M73 647Q73 657 77 670T89 683Q90 683 161 688T234 694Q246 694 246 685T212 542Q204 508 195 472T180 418L176 399Q176 396 182 402Q231 442 283 442Q345 442 383 396T422 280Q422 169 343 79T173 -11Q123 -11 82 27T40 150V159Q40 180 48 217T97 414Q147 611 147 623T109 637Q104 637 101 637H96Q86 637 83 637T76 640T73 647ZM336 325V331Q336 405 275 405Q258 405 240 397T207 376T181 352T163 330L157 322L136 236Q114 150 114 114Q114 66 138 42Q154 26 178 26Q211 26 245 58Q270 81 285 114T318 219Q336 291 336 325Z"></path><path id="MJX-60-TEX-N-32" d="M109 429Q82 429 66 447T50 491Q50 562 103 614T235 666Q326 666 387 610T449 465Q449 422 429 383T381 315T301 241Q265 210 201 149L142 93L218 92Q375 92 385 97Q392 99 409 186V189H449V186Q448 183 436 95T421 3V0H50V19V31Q50 38 56 46T86 81Q115 113 136 137Q145 147 170 174T204 211T233 244T261 278T284 308T305 340T320 369T333 401T340 431T343 464Q343 527 309 573T212 619Q179 619 154 602T119 569T109 550Q109 549 114 549Q132 549 151 535T170 489Q170 464 154 447T109 429Z"></path><path id="MJX-60-TEX-N-31" d="M213 578L200 573Q186 568 160 563T102 556H83V602H102Q149 604 189 617T245 641T273 663Q275 666 285 666Q294 666 302 660V361L303 61Q310 54 315 52T339 48T401 46H427V0H416Q395 3 257 3Q121 3 100 0H88V46H114Q136 46 152 46T177 47T193 50T201 52T207 57T213 61V578Z"></path><path id="MJX-60-TEX-I-1D456" d="M184 600Q184 624 203 642T247 661Q265 661 277 649T290 619Q290 596 270 577T226 557Q211 557 198 567T184 600ZM21 287Q21 295 30 318T54 369T98 420T158 442Q197 442 223 419T250 357Q250 340 236 301T196 196T154 83Q149 61 149 51Q149 26 166 26Q175 26 185 29T208 43T235 78T260 137Q263 149 265 151T282 153Q302 153 302 143Q302 135 293 112T268 61T223 11T161 -11Q129 -11 102 10T74 74Q74 91 79 106T122 220Q160 321 166 341T173 380Q173 404 156 404H154Q124 404 99 371T61 287Q60 286 59 284T58 281T56 279T53 278T49 278T41 278H27Q21 284 21 287Z"></path><path id="MJX-60-TEX-I-1D458" d="M121 647Q121 657 125 670T137 683Q138 683 209 688T282 694Q294 694 294 686Q294 679 244 477Q194 279 194 272Q213 282 223 291Q247 309 292 354T362 415Q402 442 438 442Q468 442 485 423T503 369Q503 344 496 327T477 302T456 291T438 288Q418 288 406 299T394 328Q394 353 410 369T442 390L458 393Q446 405 434 405H430Q398 402 367 380T294 316T228 255Q230 254 243 252T267 246T293 238T320 224T342 206T359 180T365 147Q365 130 360 106T354 66Q354 26 381 26Q429 26 459 145Q461 153 479 153H483Q499 153 499 144Q499 139 496 130Q455 -11 378 -11Q333 -11 305 15T277 90Q277 108 280 121T283 145Q283 167 269 183T234 206T200 217T182 220H180Q168 178 159 139T145 81T136 44T129 20T122 7T111 -2Q98 -11 83 -11Q66 -11 57 -1T48 16Q48 26 85 176T158 471L195 616Q196 629 188 632T149 637H144Q134 637 131 637T124 640T121 647Z"></path><path id="MJX-60-TEX-N-30" d="M96 585Q152 666 249 666Q297 666 345 640T423 548Q460 465 460 320Q460 165 417 83Q397 41 362 16T301 -15T250 -22Q224 -22 198 -16T137 16T82 83Q39 165 39 320Q39 494 96 585ZM321 597Q291 629 250 629Q208 629 178 597Q153 571 145 525T137 333Q137 175 145 125T181 46Q209 16 250 16Q290 16 318 46Q347 76 354 130T362 333Q362 478 354 524T321 597Z"></path><path id="MJX-60-TEX-S4-23A4" d="M0 1070V1154H347V-645H263V1070H0Z"></path><path id="MJX-60-TEX-S4-23A6" d="M263 -560V1155H347V-644H0V-560H263Z"></path><path id="MJX-60-TEX-S4-23A5" d="M263 0V602H347V0H263Z"></path></defs><g stroke="currentColor" fill="currentColor" stroke-width="0" transform="scale(1,-1)"><g data-mml-node="math"><g data-mml-node="msub"><g data-mml-node="TeXAtom" data-mjx-texclass="ORD"><g data-mml-node="mi"><use data-c="1D405" xlink:href="#MJX-60-TEX-B-1D405"></use></g></g><g data-mml-node="TeXAtom" transform="translate(757,-176.7) scale(0.707)" data-mjx-texclass="ORD"><g data-mml-node="mi"><use data-c="1D446" xlink:href="#MJX-60-TEX-I-1D446"></use></g><g data-mml-node="mi" transform="translate(645,0)"><use data-c="1D43C" xlink:href="#MJX-60-TEX-I-1D43C"></use></g><g data-mml-node="mi" transform="translate(1149,0)"><use data-c="1D441" xlink:href="#MJX-60-TEX-I-1D441"></use></g><g data-mml-node="mi" transform="translate(2037,0)"><use data-c="1D446" xlink:href="#MJX-60-TEX-I-1D446"></use></g><g data-mml-node="TeXAtom" data-mjx-texclass="ORD" transform="translate(2682,0)"><g data-mml-node="mo"><use data-c="2F" xlink:href="#MJX-60-TEX-N-2F"></use></g></g><g data-mml-node="mi" transform="translate(3182,0)"><use data-c="1D437" xlink:href="#MJX-60-TEX-I-1D437"></use></g><g data-mml-node="mi" transform="translate(4010,0)"><use data-c="1D445" xlink:href="#MJX-60-TEX-I-1D445"></use></g></g></g><g data-mml-node="mo" transform="translate(4457,0)"><use data-c="3D" xlink:href="#MJX-60-TEX-N-3D"></use></g><g data-mml-node="mrow" transform="translate(5512.7,0)"><g data-mml-node="mo"><use data-c="23A1" xlink:href="#MJX-60-TEX-S4-23A1" transform="translate(0,2506.5)"></use><use data-c="23A3" xlink:href="#MJX-60-TEX-S4-23A3" transform="translate(0,-2516.5)"></use><svg width="667" height="3422.9" y="-1461.5" x="0" viewBox="0 855.7 667 3422.9"><use data-c="23A2" xlink:href="#MJX-60-TEX-S4-23A2" transform="scale(1,8.529)"></use></svg></g><g data-mml-node="mtable" transform="translate(667,0)"><g data-mml-node="mtr" transform="translate(0,2910.5)"><g data-mml-node="mtd" transform="translate(283.5,0)"><g data-mml-node="msub"><g data-mml-node="TeXAtom" data-mjx-texclass="ORD"><g data-mml-node="mi"><use data-c="1D40C" xlink:href="#MJX-60-TEX-B-1D40C"></use></g></g><g data-mml-node="TeXAtom" transform="translate(1125,-150) scale(0.707)" data-mjx-texclass="ORD"><g data-mml-node="mi"><use data-c="1D44E" xlink:href="#MJX-60-TEX-I-1D44E"></use></g><g data-mml-node="mi" transform="translate(529,0)"><use data-c="1D44E" xlink:href="#MJX-60-TEX-I-1D44E"></use></g></g></g></g><g data-mml-node="mtd" transform="translate(3501.8,0)"><g data-mml-node="msub"><g data-mml-node="TeXAtom" data-mjx-texclass="ORD"><g data-mml-node="mi"><use data-c="1D40C" xlink:href="#MJX-60-TEX-B-1D40C"></use></g></g><g data-mml-node="TeXAtom" transform="translate(1125,-150) scale(0.707)" data-mjx-texclass="ORD"><g data-mml-node="mi"><use data-c="1D44E" xlink:href="#MJX-60-TEX-I-1D44E"></use></g><g data-mml-node="mi" transform="translate(529,0)"><use data-c="1D463" xlink:href="#MJX-60-TEX-I-1D463"></use></g></g></g></g><g data-mml-node="mtd" transform="translate(6410.7,0)"><g data-mml-node="msub"><g data-mml-node="TeXAtom" data-mjx-texclass="ORD"><g data-mml-node="mi"><use data-c="1D40C" xlink:href="#MJX-60-TEX-B-1D40C"></use></g></g><g data-mml-node="TeXAtom" transform="translate(1125,-150) scale(0.707)" data-mjx-texclass="ORD"><g data-mml-node="mi"><use data-c="1D44E" xlink:href="#MJX-60-TEX-I-1D44E"></use></g><g data-mml-node="mi" transform="translate(529,0)"><use data-c="1D45D" xlink:href="#MJX-60-TEX-I-1D45D"></use></g></g></g></g><g data-mml-node="mtd" transform="translate(9599,0)"><g data-mml-node="msub"><g data-mml-node="TeXAtom" data-mjx-texclass="ORD"><g data-mml-node="mn"><use data-c="1D7CE" xlink:href="#MJX-60-TEX-B-1D7CE"></use></g></g><g data-mml-node="TeXAtom" transform="translate(608,-150) scale(0.707)" data-mjx-texclass="ORD"><g data-mml-node="mn"><use data-c="33" xlink:href="#MJX-60-TEX-N-33"></use></g><g data-mml-node="mo" transform="translate(500,0)"><use data-c="D7" xlink:href="#MJX-60-TEX-N-D7"></use></g><g data-mml-node="mn" transform="translate(1278,0)"><use data-c="33" xlink:href="#MJX-60-TEX-N-33"></use></g></g></g></g><g data-mml-node="mtd" transform="translate(13045.6,0)"><g data-mml-node="mo"><use data-c="2212" xlink:href="#MJX-60-TEX-N-2212"></use></g><g data-mml-node="msubsup" transform="translate(778,0)"><g data-mml-node="TeXAtom" data-mjx-texclass="ORD"><g data-mml-node="mi"><use data-c="1D402" xlink:href="#MJX-60-TEX-B-1D402"></use></g></g><g data-mml-node="TeXAtom" transform="translate(864,363) scale(0.707)" data-mjx-texclass="ORD"><g data-mml-node="mi"><use data-c="1D45B" xlink:href="#MJX-60-TEX-I-1D45B"></use></g></g><g data-mml-node="TeXAtom" transform="translate(864,-315.5) scale(0.707)" data-mjx-texclass="ORD"><g data-mml-node="mi"><use data-c="1D44F" xlink:href="#MJX-60-TEX-I-1D44F"></use></g></g></g></g><g data-mml-node="mtd" transform="translate(16414.9,0)"><g data-mml-node="msub"><g data-mml-node="TeXAtom" data-mjx-texclass="ORD"><g data-mml-node="mn"><use data-c="1D7CE" xlink:href="#MJX-60-TEX-B-1D7CE"></use></g></g><g data-mml-node="TeXAtom" transform="translate(608,-150) scale(0.707)" data-mjx-texclass="ORD"><g data-mml-node="mn"><use data-c="33" xlink:href="#MJX-60-TEX-N-33"></use></g><g data-mml-node="mo" transform="translate(500,0)"><use data-c="D7" xlink:href="#MJX-60-TEX-N-D7"></use></g><g data-mml-node="mn" transform="translate(1278,0)"><use data-c="33" xlink:href="#MJX-60-TEX-N-33"></use></g></g></g></g><g data-mml-node="mtd" transform="translate(19552.5,0)"><g data-mml-node="msub"><g data-mml-node="TeXAtom" data-mjx-texclass="ORD"><g data-mml-node="mn"><use data-c="1D7CE" xlink:href="#MJX-60-TEX-B-1D7CE"></use></g></g><g data-mml-node="TeXAtom" transform="translate(608,-150) scale(0.707)" data-mjx-texclass="ORD"><g data-mml-node="mn"><use data-c="33" xlink:href="#MJX-60-TEX-N-33"></use></g><g data-mml-node="mo" transform="translate(500,0)"><use data-c="D7" xlink:href="#MJX-60-TEX-N-D7"></use></g><g data-mml-node="mn" transform="translate(1278,0)"><use data-c="32" xlink:href="#MJX-60-TEX-N-32"></use></g></g></g></g><g data-mml-node="mtd" transform="translate(22974.9,0)"><g data-mml-node="msub"><g data-mml-node="TeXAtom" data-mjx-texclass="ORD"><g data-mml-node="mn"><use data-c="1D7CE" xlink:href="#MJX-60-TEX-B-1D7CE"></use></g></g><g data-mml-node="TeXAtom" transform="translate(608,-150) scale(0.707)" data-mjx-texclass="ORD"><g data-mml-node="mn"><use data-c="33" xlink:href="#MJX-60-TEX-N-33"></use></g><g data-mml-node="mo" transform="translate(500,0)"><use data-c="D7" xlink:href="#MJX-60-TEX-N-D7"></use></g><g data-mml-node="mn" transform="translate(1278,0)"><use data-c="31" xlink:href="#MJX-60-TEX-N-31"></use></g></g></g></g><g data-mml-node="mtd" transform="translate(26174.8,0)"><g data-mml-node="msub"><g data-mml-node="TeXAtom" data-mjx-texclass="ORD"><g data-mml-node="mn"><use data-c="1D7CE" xlink:href="#MJX-60-TEX-B-1D7CE"></use></g></g><g data-mml-node="TeXAtom" transform="translate(608,-150) scale(0.707)" data-mjx-texclass="ORD"><g data-mml-node="mn"><use data-c="33" xlink:href="#MJX-60-TEX-N-33"></use></g><g data-mml-node="mo" transform="translate(500,0)"><use data-c="D7" xlink:href="#MJX-60-TEX-N-D7"></use></g><g data-mml-node="mn" transform="translate(1278,0)"><use data-c="31" xlink:href="#MJX-60-TEX-N-31"></use></g></g></g></g></g><g data-mml-node="mtr" transform="translate(0,1437.2)"><g data-mml-node="mtd" transform="translate(299.1,0)"><g data-mml-node="msub"><g data-mml-node="TeXAtom" data-mjx-texclass="ORD"><g data-mml-node="mi"><use data-c="1D40C" xlink:href="#MJX-60-TEX-B-1D40C"></use></g></g><g data-mml-node="TeXAtom" transform="translate(1125,-150) scale(0.707)" data-mjx-texclass="ORD"><g data-mml-node="mi"><use data-c="1D463" xlink:href="#MJX-60-TEX-I-1D463"></use></g><g data-mml-node="mi" transform="translate(485,0)"><use data-c="1D44E" xlink:href="#MJX-60-TEX-I-1D44E"></use></g></g></g></g><g data-mml-node="mtd" transform="translate(3517.4,0)"><g data-mml-node="msub"><g data-mml-node="TeXAtom" data-mjx-texclass="ORD"><g data-mml-node="mi"><use data-c="1D40C" xlink:href="#MJX-60-TEX-B-1D40C"></use></g></g><g data-mml-node="TeXAtom" transform="translate(1125,-150) scale(0.707)" data-mjx-texclass="ORD"><g data-mml-node="mi"><use data-c="1D463" xlink:href="#MJX-60-TEX-I-1D463"></use></g><g data-mml-node="mi" transform="translate(485,0)"><use data-c="1D463" xlink:href="#MJX-60-TEX-I-1D463"></use></g></g></g></g><g data-mml-node="mtd" transform="translate(6426.3,0)"><g data-mml-node="msub"><g data-mml-node="TeXAtom" data-mjx-texclass="ORD"><g data-mml-node="mi"><use data-c="1D40C" xlink:href="#MJX-60-TEX-B-1D40C"></use></g></g><g data-mml-node="TeXAtom" transform="translate(1125,-150) scale(0.707)" data-mjx-texclass="ORD"><g data-mml-node="mi"><use data-c="1D463" xlink:href="#MJX-60-TEX-I-1D463"></use></g><g data-mml-node="mi" transform="translate(485,0)"><use data-c="1D45D" xlink:href="#MJX-60-TEX-I-1D45D"></use></g></g></g></g><g data-mml-node="mtd" transform="translate(9599,0)"><g data-mml-node="msub"><g data-mml-node="TeXAtom" data-mjx-texclass="ORD"><g data-mml-node="mn"><use data-c="1D7CE" xlink:href="#MJX-60-TEX-B-1D7CE"></use></g></g><g data-mml-node="TeXAtom" transform="translate(608,-150) scale(0.707)" data-mjx-texclass="ORD"><g data-mml-node="mn"><use data-c="33" xlink:href="#MJX-60-TEX-N-33"></use></g><g data-mml-node="mo" transform="translate(500,0)"><use data-c="D7" xlink:href="#MJX-60-TEX-N-D7"></use></g><g data-mml-node="mn" transform="translate(1278,0)"><use data-c="33" xlink:href="#MJX-60-TEX-N-33"></use></g></g></g></g><g data-mml-node="mtd" transform="translate(13146.1,0)"><g data-mml-node="msub"><g data-mml-node="TeXAtom" data-mjx-texclass="ORD"><g data-mml-node="mn"><use data-c="1D7CE" xlink:href="#MJX-60-TEX-B-1D7CE"></use></g></g><g data-mml-node="TeXAtom" transform="translate(608,-150) scale(0.707)" data-mjx-texclass="ORD"><g data-mml-node="mn"><use data-c="33" xlink:href="#MJX-60-TEX-N-33"></use></g><g data-mml-node="mo" transform="translate(500,0)"><use data-c="D7" xlink:href="#MJX-60-TEX-N-D7"></use></g><g data-mml-node="mn" transform="translate(1278,0)"><use data-c="33" xlink:href="#MJX-60-TEX-N-33"></use></g></g></g></g><g data-mml-node="mtd" transform="translate(16703.4,0)"><g data-mml-node="msubsup"><g data-mml-node="TeXAtom" data-mjx-texclass="ORD"><g data-mml-node="mi"><use data-c="1D402" xlink:href="#MJX-60-TEX-B-1D402"></use></g></g><g data-mml-node="TeXAtom" transform="translate(864,363) scale(0.707)" data-mjx-texclass="ORD"><g data-mml-node="mi"><use data-c="1D45B" xlink:href="#MJX-60-TEX-I-1D45B"></use></g></g><g data-mml-node="TeXAtom" transform="translate(864,-315.5) scale(0.707)" data-mjx-texclass="ORD"><g data-mml-node="mi"><use data-c="1D44F" xlink:href="#MJX-60-TEX-I-1D44F"></use></g></g></g></g><g data-mml-node="mtd" transform="translate(19552.5,0)"><g data-mml-node="msub"><g data-mml-node="TeXAtom" data-mjx-texclass="ORD"><g data-mml-node="mn"><use data-c="1D7CE" xlink:href="#MJX-60-TEX-B-1D7CE"></use></g></g><g data-mml-node="TeXAtom" transform="translate(608,-150) scale(0.707)" data-mjx-texclass="ORD"><g data-mml-node="mn"><use data-c="33" xlink:href="#MJX-60-TEX-N-33"></use></g><g data-mml-node="mo" transform="translate(500,0)"><use data-c="D7" xlink:href="#MJX-60-TEX-N-D7"></use></g><g data-mml-node="mn" transform="translate(1278,0)"><use data-c="32" xlink:href="#MJX-60-TEX-N-32"></use></g></g></g></g><g data-mml-node="mtd" transform="translate(22974.9,0)"><g data-mml-node="msub"><g data-mml-node="TeXAtom" data-mjx-texclass="ORD"><g data-mml-node="mn"><use data-c="1D7CE" xlink:href="#MJX-60-TEX-B-1D7CE"></use></g></g><g data-mml-node="TeXAtom" transform="translate(608,-150) scale(0.707)" data-mjx-texclass="ORD"><g data-mml-node="mn"><use data-c="33" xlink:href="#MJX-60-TEX-N-33"></use></g><g data-mml-node="mo" transform="translate(500,0)"><use data-c="D7" xlink:href="#MJX-60-TEX-N-D7"></use></g><g data-mml-node="mn" transform="translate(1278,0)"><use data-c="31" xlink:href="#MJX-60-TEX-N-31"></use></g></g></g></g><g data-mml-node="mtd" transform="translate(26174.8,0)"><g data-mml-node="msub"><g data-mml-node="TeXAtom" data-mjx-texclass="ORD"><g data-mml-node="mn"><use data-c="1D7CE" xlink:href="#MJX-60-TEX-B-1D7CE"></use></g></g><g data-mml-node="TeXAtom" transform="translate(608,-150) scale(0.707)" data-mjx-texclass="ORD"><g data-mml-node="mn"><use data-c="33" xlink:href="#MJX-60-TEX-N-33"></use></g><g data-mml-node="mo" transform="translate(500,0)"><use data-c="D7" xlink:href="#MJX-60-TEX-N-D7"></use></g><g data-mml-node="mn" transform="translate(1278,0)"><use data-c="31" xlink:href="#MJX-60-TEX-N-31"></use></g></g></g></g></g><g data-mml-node="mtr" transform="translate(0,-36.1)"><g data-mml-node="mtd" transform="translate(287.5,0)"><g data-mml-node="msub"><g data-mml-node="TeXAtom" data-mjx-texclass="ORD"><g data-mml-node="mn"><use data-c="1D7CE" xlink:href="#MJX-60-TEX-B-1D7CE"></use></g></g><g data-mml-node="TeXAtom" transform="translate(608,-150) scale(0.707)" data-mjx-texclass="ORD"><g data-mml-node="mn"><use data-c="33" xlink:href="#MJX-60-TEX-N-33"></use></g><g data-mml-node="mo" transform="translate(500,0)"><use data-c="D7" xlink:href="#MJX-60-TEX-N-D7"></use></g><g data-mml-node="mn" transform="translate(1278,0)"><use data-c="33" xlink:href="#MJX-60-TEX-N-33"></use></g></g></g></g><g data-mml-node="mtd" transform="translate(3511,0)"><g data-mml-node="msub"><g data-mml-node="TeXAtom" data-mjx-texclass="ORD"><g data-mml-node="mi"><use data-c="1D40C" xlink:href="#MJX-60-TEX-B-1D40C"></use></g></g><g data-mml-node="TeXAtom" transform="translate(1125,-150) scale(0.707)" data-mjx-texclass="ORD"><g data-mml-node="mi"><use data-c="1D45D" xlink:href="#MJX-60-TEX-I-1D45D"></use></g><g data-mml-node="mi" transform="translate(503,0)"><use data-c="1D463" xlink:href="#MJX-60-TEX-I-1D463"></use></g></g></g></g><g data-mml-node="mtd" transform="translate(6419.9,0)"><g data-mml-node="msub"><g data-mml-node="TeXAtom" data-mjx-texclass="ORD"><g data-mml-node="mi"><use data-c="1D40C" xlink:href="#MJX-60-TEX-B-1D40C"></use></g></g><g data-mml-node="TeXAtom" transform="translate(1125,-150) scale(0.707)" data-mjx-texclass="ORD"><g data-mml-node="mi"><use data-c="1D45D" xlink:href="#MJX-60-TEX-I-1D45D"></use></g><g data-mml-node="mi" transform="translate(503,0)"><use data-c="1D45D" xlink:href="#MJX-60-TEX-I-1D45D"></use></g></g></g></g><g data-mml-node="mtd" transform="translate(9599,0)"><g data-mml-node="msub"><g data-mml-node="TeXAtom" data-mjx-texclass="ORD"><g data-mml-node="mn"><use data-c="1D7CE" xlink:href="#MJX-60-TEX-B-1D7CE"></use></g></g><g data-mml-node="TeXAtom" transform="translate(608,-150) scale(0.707)" data-mjx-texclass="ORD"><g data-mml-node="mn"><use data-c="33" xlink:href="#MJX-60-TEX-N-33"></use></g><g data-mml-node="mo" transform="translate(500,0)"><use data-c="D7" xlink:href="#MJX-60-TEX-N-D7"></use></g><g data-mml-node="mn" transform="translate(1278,0)"><use data-c="33" xlink:href="#MJX-60-TEX-N-33"></use></g></g></g></g><g data-mml-node="mtd" transform="translate(13146.1,0)"><g data-mml-node="msub"><g data-mml-node="TeXAtom" data-mjx-texclass="ORD"><g data-mml-node="mn"><use data-c="1D7CE" xlink:href="#MJX-60-TEX-B-1D7CE"></use></g></g><g data-mml-node="TeXAtom" transform="translate(608,-150) scale(0.707)" data-mjx-texclass="ORD"><g data-mml-node="mn"><use data-c="33" xlink:href="#MJX-60-TEX-N-33"></use></g><g data-mml-node="mo" transform="translate(500,0)"><use data-c="D7" xlink:href="#MJX-60-TEX-N-D7"></use></g><g data-mml-node="mn" transform="translate(1278,0)"><use data-c="33" xlink:href="#MJX-60-TEX-N-33"></use></g></g></g></g><g data-mml-node="mtd" transform="translate(16414.9,0)"><g data-mml-node="msub"><g data-mml-node="TeXAtom" data-mjx-texclass="ORD"><g data-mml-node="mn"><use data-c="1D7CE" xlink:href="#MJX-60-TEX-B-1D7CE"></use></g></g><g data-mml-node="TeXAtom" transform="translate(608,-150) scale(0.707)" data-mjx-texclass="ORD"><g data-mml-node="mn"><use data-c="33" xlink:href="#MJX-60-TEX-N-33"></use></g><g data-mml-node="mo" transform="translate(500,0)"><use data-c="D7" xlink:href="#MJX-60-TEX-N-D7"></use></g><g data-mml-node="mn" transform="translate(1278,0)"><use data-c="33" xlink:href="#MJX-60-TEX-N-33"></use></g></g></g></g><g data-mml-node="mtd" transform="translate(19552.5,0)"><g data-mml-node="msub"><g data-mml-node="TeXAtom" data-mjx-texclass="ORD"><g data-mml-node="mn"><use data-c="1D7CE" xlink:href="#MJX-60-TEX-B-1D7CE"></use></g></g><g data-mml-node="TeXAtom" transform="translate(608,-150) scale(0.707)" data-mjx-texclass="ORD"><g data-mml-node="mn"><use data-c="33" xlink:href="#MJX-60-TEX-N-33"></use></g><g data-mml-node="mo" transform="translate(500,0)"><use data-c="D7" xlink:href="#MJX-60-TEX-N-D7"></use></g><g data-mml-node="mn" transform="translate(1278,0)"><use data-c="32" xlink:href="#MJX-60-TEX-N-32"></use></g></g></g></g><g data-mml-node="mtd" transform="translate(22974.9,0)"><g data-mml-node="msub"><g data-mml-node="TeXAtom" data-mjx-texclass="ORD"><g data-mml-node="mn"><use data-c="1D7CE" xlink:href="#MJX-60-TEX-B-1D7CE"></use></g></g><g data-mml-node="TeXAtom" transform="translate(608,-150) scale(0.707)" data-mjx-texclass="ORD"><g data-mml-node="mn"><use data-c="33" xlink:href="#MJX-60-TEX-N-33"></use></g><g data-mml-node="mo" transform="translate(500,0)"><use data-c="D7" xlink:href="#MJX-60-TEX-N-D7"></use></g><g data-mml-node="mn" transform="translate(1278,0)"><use data-c="31" xlink:href="#MJX-60-TEX-N-31"></use></g></g></g></g><g data-mml-node="mtd" transform="translate(26174.8,0)"><g data-mml-node="msub"><g data-mml-node="TeXAtom" data-mjx-texclass="ORD"><g data-mml-node="mn"><use data-c="1D7CE" xlink:href="#MJX-60-TEX-B-1D7CE"></use></g></g><g data-mml-node="TeXAtom" transform="translate(608,-150) scale(0.707)" data-mjx-texclass="ORD"><g data-mml-node="mn"><use data-c="33" xlink:href="#MJX-60-TEX-N-33"></use></g><g data-mml-node="mo" transform="translate(500,0)"><use data-c="D7" xlink:href="#MJX-60-TEX-N-D7"></use></g><g data-mml-node="mn" transform="translate(1278,0)"><use data-c="31" xlink:href="#MJX-60-TEX-N-31"></use></g></g></g></g></g><g data-mml-node="mtr" transform="translate(0,-1473.3)"><g data-mml-node="mtd"><g data-mml-node="msub"><g data-mml-node="TeXAtom" data-mjx-texclass="ORD"><g data-mml-node="mi"><use data-c="1D40C" xlink:href="#MJX-60-TEX-B-1D40C"></use></g></g><g data-mml-node="TeXAtom" transform="translate(1125,-150) scale(0.707)" data-mjx-texclass="ORD"><g data-mml-node="mi"><use data-c="1D437" xlink:href="#MJX-60-TEX-I-1D437"></use></g><g data-mml-node="mi" transform="translate(828,0)"><use data-c="1D45D" xlink:href="#MJX-60-TEX-I-1D45D"></use></g><g data-mml-node="mi" transform="translate(1331,0)"><use data-c="1D44E" xlink:href="#MJX-60-TEX-I-1D44E"></use></g></g></g></g><g data-mml-node="mtd" transform="translate(3490.2,0)"><g data-mml-node="msub"><g data-mml-node="TeXAtom" data-mjx-texclass="ORD"><g data-mml-node="mn"><use data-c="1D7CE" xlink:href="#MJX-60-TEX-B-1D7CE"></use></g></g><g data-mml-node="TeXAtom" transform="translate(608,-150) scale(0.707)" data-mjx-texclass="ORD"><g data-mml-node="mn"><use data-c="33" xlink:href="#MJX-60-TEX-N-33"></use></g><g data-mml-node="mo" transform="translate(500,0)"><use data-c="D7" xlink:href="#MJX-60-TEX-N-D7"></use></g><g data-mml-node="mn" transform="translate(1278,0)"><use data-c="33" xlink:href="#MJX-60-TEX-N-33"></use></g></g></g></g><g data-mml-node="mtd" transform="translate(6405.5,0)"><g data-mml-node="msub"><g data-mml-node="TeXAtom" data-mjx-texclass="ORD"><g data-mml-node="mn"><use data-c="1D7CE" xlink:href="#MJX-60-TEX-B-1D7CE"></use></g></g><g data-mml-node="TeXAtom" transform="translate(608,-150) scale(0.707)" data-mjx-texclass="ORD"><g data-mml-node="mn"><use data-c="33" xlink:href="#MJX-60-TEX-N-33"></use></g><g data-mml-node="mo" transform="translate(500,0)"><use data-c="D7" xlink:href="#MJX-60-TEX-N-D7"></use></g><g data-mml-node="mn" transform="translate(1278,0)"><use data-c="33" xlink:href="#MJX-60-TEX-N-33"></use></g></g></g></g><g data-mml-node="mtd" transform="translate(9320.7,0)"><g data-mml-node="msub"><g data-mml-node="TeXAtom" data-mjx-texclass="ORD"><g data-mml-node="mi"><use data-c="1D40C" xlink:href="#MJX-60-TEX-B-1D40C"></use></g></g><g data-mml-node="TeXAtom" transform="translate(1125,-150) scale(0.707)" data-mjx-texclass="ORD"><g data-mml-node="mi"><use data-c="1D437" xlink:href="#MJX-60-TEX-I-1D437"></use></g><g data-mml-node="mi" transform="translate(828,0)"><use data-c="1D45D" xlink:href="#MJX-60-TEX-I-1D45D"></use></g><g data-mml-node="mi" transform="translate(1331,0)"><use data-c="1D45D" xlink:href="#MJX-60-TEX-I-1D45D"></use></g></g></g></g><g data-mml-node="mtd" transform="translate(13146.1,0)"><g data-mml-node="msub"><g data-mml-node="TeXAtom" data-mjx-texclass="ORD"><g data-mml-node="mn"><use data-c="1D7CE" xlink:href="#MJX-60-TEX-B-1D7CE"></use></g></g><g data-mml-node="TeXAtom" transform="translate(608,-150) scale(0.707)" data-mjx-texclass="ORD"><g data-mml-node="mn"><use data-c="33" xlink:href="#MJX-60-TEX-N-33"></use></g><g data-mml-node="mo" transform="translate(500,0)"><use data-c="D7" xlink:href="#MJX-60-TEX-N-D7"></use></g><g data-mml-node="mn" transform="translate(1278,0)"><use data-c="33" xlink:href="#MJX-60-TEX-N-33"></use></g></g></g></g><g data-mml-node="mtd" transform="translate(16414.9,0)"><g data-mml-node="msub"><g data-mml-node="TeXAtom" data-mjx-texclass="ORD"><g data-mml-node="mn"><use data-c="1D7CE" xlink:href="#MJX-60-TEX-B-1D7CE"></use></g></g><g data-mml-node="TeXAtom" transform="translate(608,-150) scale(0.707)" data-mjx-texclass="ORD"><g data-mml-node="mn"><use data-c="33" xlink:href="#MJX-60-TEX-N-33"></use></g><g data-mml-node="mo" transform="translate(500,0)"><use data-c="D7" xlink:href="#MJX-60-TEX-N-D7"></use></g><g data-mml-node="mn" transform="translate(1278,0)"><use data-c="33" xlink:href="#MJX-60-TEX-N-33"></use></g></g></g></g><g data-mml-node="mtd" transform="translate(19330.1,0)"><g data-mml-node="msub"><g data-mml-node="TeXAtom" data-mjx-texclass="ORD"><g data-mml-node="mi"><use data-c="1D40C" xlink:href="#MJX-60-TEX-B-1D40C"></use></g></g><g data-mml-node="TeXAtom" transform="translate(1125,-150) scale(0.707)" data-mjx-texclass="ORD"><g data-mml-node="mi"><use data-c="1D437" xlink:href="#MJX-60-TEX-I-1D437"></use></g><g data-mml-node="mi" transform="translate(828,0)"><use data-c="1D45D" xlink:href="#MJX-60-TEX-I-1D45D"></use></g><g data-mml-node="mi" transform="translate(1331,0)"><use data-c="1D456" xlink:href="#MJX-60-TEX-I-1D456"></use></g></g></g></g><g data-mml-node="mtd" transform="translate(22690.2,0)"><g data-mml-node="msub"><g data-mml-node="TeXAtom" data-mjx-texclass="ORD"><g data-mml-node="mi"><use data-c="1D40C" xlink:href="#MJX-60-TEX-B-1D40C"></use></g></g><g data-mml-node="TeXAtom" transform="translate(1125,-150) scale(0.707)" data-mjx-texclass="ORD"><g data-mml-node="mi"><use data-c="1D437" xlink:href="#MJX-60-TEX-I-1D437"></use></g><g data-mml-node="mi" transform="translate(828,0)"><use data-c="1D45D" xlink:href="#MJX-60-TEX-I-1D45D"></use></g><g data-mml-node="mi" transform="translate(1331,0)"><use data-c="1D458" xlink:href="#MJX-60-TEX-I-1D458"></use></g></g></g></g><g data-mml-node="mtd" transform="translate(26174.8,0)"><g data-mml-node="msub"><g data-mml-node="TeXAtom" data-mjx-texclass="ORD"><g data-mml-node="mn"><use data-c="1D7CE" xlink:href="#MJX-60-TEX-B-1D7CE"></use></g></g><g data-mml-node="TeXAtom" transform="translate(608,-150) scale(0.707)" data-mjx-texclass="ORD"><g data-mml-node="mn"><use data-c="33" xlink:href="#MJX-60-TEX-N-33"></use></g><g data-mml-node="mo" transform="translate(500,0)"><use data-c="D7" xlink:href="#MJX-60-TEX-N-D7"></use></g><g data-mml-node="mn" transform="translate(1278,0)"><use data-c="31" xlink:href="#MJX-60-TEX-N-31"></use></g></g></g></g></g><g data-mml-node="mtr" transform="translate(0,-2910.5)"><g data-mml-node="mtd" transform="translate(1245.1,0)"></g><g data-mml-node="mtd" transform="translate(4447.8,0)"></g><g data-mml-node="mtd" transform="translate(7363.1,0)"></g><g data-mml-node="mtd" transform="translate(10556.6,0)"></g><g data-mml-node="mtd" transform="translate(12792.5,0)"><g data-mml-node="msub"><g data-mml-node="TeXAtom" data-mjx-texclass="ORD"><g data-mml-node="mn"><use data-c="1D7CE" xlink:href="#MJX-60-TEX-B-1D7CE"></use></g></g><g data-mml-node="TeXAtom" transform="translate(608,-150) scale(0.707)" data-mjx-texclass="ORD"><g data-mml-node="mn"><use data-c="31" xlink:href="#MJX-60-TEX-N-31"></use><use data-c="30" xlink:href="#MJX-60-TEX-N-30" transform="translate(500,0)"></use></g><g data-mml-node="mo" transform="translate(1000,0)"><use data-c="D7" xlink:href="#MJX-60-TEX-N-D7"></use></g><g data-mml-node="mn" transform="translate(1778,0)"><use data-c="32" xlink:href="#MJX-60-TEX-N-32"></use><use data-c="32" xlink:href="#MJX-60-TEX-N-32" transform="translate(500,0)"></use></g></g></g></g><g data-mml-node="mtd" transform="translate(17372.5,0)"></g><g data-mml-node="mtd" transform="translate(20510.2,0)"></g><g data-mml-node="mtd" transform="translate(23932.5,0)"></g><g data-mml-node="mtd" transform="translate(27132.4,0)"></g></g></g><g data-mml-node="mo" transform="translate(28757,0)"><use data-c="23A4" xlink:href="#MJX-60-TEX-S4-23A4" transform="translate(0,2506.5)"></use><use data-c="23A6" xlink:href="#MJX-60-TEX-S4-23A6" transform="translate(0,-2516.5)"></use><svg width="667" height="3422.9" y="-1461.5" x="0" viewBox="0 855.7 667 3422.9"><use data-c="23A5" xlink:href="#MJX-60-TEX-S4-23A5" transform="scale(1,8.529)"></use></svg></g></g></g></g></svg>

</svg>
