<svg xmlns="http://www.w3.org/2000/svg" xmlns:xlink="http://www.w3.org/1999/xlink" width="1000" height="106" viewBox="0 0 1000 106" role="img" aria-labelledby="title desc">
<title id="title">Equation 10.6-2</title>
<desc id="desc">LaTeX source: {\dot{\mathbf{p}}}_{DR} = \begin{bmatrix}
{\dot{L}}_{DR} \\
{\dot{\lambda}}_{DR} \\
{\dot{h}}_{DR}
\end{bmatrix} = \begin{bmatrix}
0 &amp; 1/R_{MhDR} &amp; 0 \\
\sec L_{DR}/R_{NhDR} &amp; 0 &amp; 0 \\
0 &amp; 0 &amp; 1
\end{bmatrix}\begin{bmatrix}
v_{EOD}^{n} \\
v_{NOD}^{n} \\
v_{UOD}^{n}
\end{bmatrix} = \mathbf{M}_{Dpv}\mathbf{v}_{OD}^{n}\qquad(10.6-2)</desc>
<style>svg{color:#1f2328}.eqno{fill:currentColor;font:18px "Times New Roman",serif}@media(prefers-color-scheme:dark){svg{color:#f0f6fc}}</style>
<svg x="189.235" y="8.289" width="621.531" height="89.423" viewBox="0 -2548 31943.6 4596" preserveAspectRatio="xMidYMid meet"><defs><path id="MJX-46-TEX-B-1D429" d="M32 442L123 446Q214 450 215 450H221V409Q222 409 229 413T251 423T284 436T328 446T382 450Q480 450 540 388T600 223Q600 128 539 61T361 -6H354Q292 -6 236 28L227 34V-132H296V-194H287Q269 -191 163 -191Q56 -191 38 -194H29V-132H98V113V284Q98 330 97 348T93 370T83 376Q69 380 42 380H29V442H32ZM457 224Q457 303 427 349T350 395Q282 395 235 352L227 345V104L233 97Q274 45 337 45Q383 45 420 86T457 224Z"></path><path id="MJX-46-TEX-N-2D9" d="M190 609Q190 637 208 653T252 669Q275 667 292 652T309 609Q309 579 292 564T250 549Q225 549 208 564T190 609Z"></path><path id="MJX-46-TEX-I-1D437" d="M287 628Q287 635 230 637Q207 637 200 638T193 647Q193 655 197 667T204 682Q206 683 403 683Q570 682 590 682T630 676Q702 659 752 597T803 431Q803 275 696 151T444 3L430 1L236 0H125H72Q48 0 41 2T33 11Q33 13 36 25Q40 41 44 43T67 46Q94 46 127 49Q141 52 146 61Q149 65 218 339T287 628ZM703 469Q703 507 692 537T666 584T629 613T590 629T555 636Q553 636 541 636T512 636T479 637H436Q392 637 386 627Q384 623 313 339T242 52Q242 48 253 48T330 47Q335 47 349 47T373 46Q499 46 581 128Q617 164 640 212T683 339T703 469Z"></path><path id="MJX-46-TEX-I-1D445" d="M230 637Q203 637 198 638T193 649Q193 676 204 682Q206 683 378 683Q550 682 564 680Q620 672 658 652T712 606T733 563T739 529Q739 484 710 445T643 385T576 351T538 338L545 333Q612 295 612 223Q612 212 607 162T602 80V71Q602 53 603 43T614 25T640 16Q668 16 686 38T712 85Q717 99 720 102T735 105Q755 105 755 93Q755 75 731 36Q693 -21 641 -21H632Q571 -21 531 4T487 82Q487 109 502 166T517 239Q517 290 474 313Q459 320 449 321T378 323H309L277 193Q244 61 244 59Q244 55 245 54T252 50T269 48T302 46H333Q339 38 339 37T336 19Q332 6 326 0H311Q275 2 180 2Q146 2 117 2T71 2T50 1Q33 1 33 10Q33 12 36 24Q41 43 46 45Q50 46 61 46H67Q94 46 127 49Q141 52 146 61Q149 65 218 339T287 628Q287 635 230 637ZM630 554Q630 586 609 608T523 636Q521 636 500 636T462 637H440Q393 637 386 627Q385 624 352 494T319 361Q319 360 388 360Q466 361 492 367Q556 377 592 426Q608 449 619 486T630 554Z"></path><path id="MJX-46-TEX-N-3D" d="M56 347Q56 360 70 367H707Q722 359 722 347Q722 336 708 328L390 327H72Q56 332 56 347ZM56 153Q56 168 72 173H708Q722 163 722 153Q722 140 707 133H70Q56 140 56 153Z"></path><path id="MJX-46-TEX-S4-23A1" d="M319 -645V1154H666V1070H403V-645H319Z"></path><path id="MJX-46-TEX-S4-23A3" d="M319 -644V1155H403V-560H666V-644H319Z"></path><path id="MJX-46-TEX-S4-23A2" d="M319 0V602H403V0H319Z"></path><path id="MJX-46-TEX-I-1D43F" d="M228 637Q194 637 192 641Q191 643 191 649Q191 673 202 682Q204 683 217 683Q271 680 344 680Q485 680 506 683H518Q524 677 524 674T522 656Q517 641 513 637H475Q406 636 394 628Q387 624 380 600T313 336Q297 271 279 198T252 88L243 52Q243 48 252 48T311 46H328Q360 46 379 47T428 54T478 72T522 106T564 161Q580 191 594 228T611 270Q616 273 628 273H641Q647 264 647 262T627 203T583 83T557 9Q555 4 553 3T537 0T494 -1Q483 -1 418 -1T294 0H116Q32 0 32 10Q32 17 34 24Q39 43 44 45Q48 46 59 46H65Q92 46 125 49Q139 52 144 61Q147 65 216 339T285 628Q285 635 228 637Z"></path><path id="MJX-46-TEX-I-1D706" d="M166 673Q166 685 183 694H202Q292 691 316 644Q322 629 373 486T474 207T524 67Q531 47 537 34T546 15T551 6T555 2T556 -2T550 -11H482Q457 3 450 18T399 152L354 277L340 262Q327 246 293 207T236 141Q211 112 174 69Q123 9 111 -1T83 -12Q47 -12 47 20Q47 37 61 52T199 187Q229 216 266 252T321 306L338 322Q338 323 288 462T234 612Q214 657 183 657Q166 657 166 673Z"></path><path id="MJX-46-TEX-I-210E" d="M137 683Q138 683 209 688T282 694Q294 694 294 685Q294 674 258 534Q220 386 220 383Q220 381 227 388Q288 442 357 442Q411 442 444 415T478 336Q478 285 440 178T402 50Q403 36 407 31T422 26Q450 26 474 56T513 138Q516 149 519 151T535 153Q555 153 555 145Q555 144 551 130Q535 71 500 33Q466 -10 419 -10H414Q367 -10 346 17T325 74Q325 90 361 192T398 345Q398 404 354 404H349Q266 404 205 306L198 293L164 158Q132 28 127 16Q114 -11 83 -11Q69 -11 59 -2T48 16Q48 30 121 320L195 616Q195 629 188 632T149 637H128Q122 643 122 645T124 664Q129 683 137 683Z"></path><path id="MJX-46-TEX-S4-23A4" d="M0 1070V1154H347V-645H263V1070H0Z"></path><path id="MJX-46-TEX-S4-23A6" d="M263 -560V1155H347V-644H0V-560H263Z"></path><path id="MJX-46-TEX-S4-23A5" d="M263 0V602H347V0H263Z"></path><path id="MJX-46-TEX-N-30" d="M96 585Q152 666 249 666Q297 666 345 640T423 548Q460 465 460 320Q460 165 417 83Q397 41 362 16T301 -15T250 -22Q224 -22 198 -16T137 16T82 83Q39 165 39 320Q39 494 96 585ZM321 597Q291 629 250 629Q208 629 178 597Q153 571 145 525T137 333Q137 175 145 125T181 46Q209 16 250 16Q290 16 318 46Q347 76 354 130T362 333Q362 478 354 524T321 597Z"></path><path id="MJX-46-TEX-N-31" d="M213 578L200 573Q186 568 160 563T102 556H83V602H102Q149 604 189 617T245 641T273 663Q275 666 285 666Q294 666 302 660V361L303 61Q310 54 315 52T339 48T401 46H427V0H416Q395 3 257 3Q121 3 100 0H88V46H114Q136 46 152 46T177 47T193 50T201 52T207 57T213 61V578Z"></path><path id="MJX-46-TEX-N-2F" d="M423 750Q432 750 438 744T444 730Q444 725 271 248T92 -240Q85 -250 75 -250Q68 -250 62 -245T56 -231Q56 -221 230 257T407 740Q411 750 423 750Z"></path><path id="MJX-46-TEX-I-1D440" d="M289 629Q289 635 232 637Q208 637 201 638T194 648Q194 649 196 659Q197 662 198 666T199 671T201 676T203 679T207 681T212 683T220 683T232 684Q238 684 262 684T307 683Q386 683 398 683T414 678Q415 674 451 396L487 117L510 154Q534 190 574 254T662 394Q837 673 839 675Q840 676 842 678T846 681L852 683H948Q965 683 988 683T1017 684Q1051 684 1051 673Q1051 668 1048 656T1045 643Q1041 637 1008 637Q968 636 957 634T939 623Q936 618 867 340T797 59Q797 55 798 54T805 50T822 48T855 46H886Q892 37 892 35Q892 19 885 5Q880 0 869 0Q864 0 828 1T736 2Q675 2 644 2T609 1Q592 1 592 11Q592 13 594 25Q598 41 602 43T625 46Q652 46 685 49Q699 52 704 61Q706 65 742 207T813 490T848 631L654 322Q458 10 453 5Q451 4 449 3Q444 0 433 0Q418 0 415 7Q413 11 374 317L335 624L267 354Q200 88 200 79Q206 46 272 46H282Q288 41 289 37T286 19Q282 3 278 1Q274 0 267 0Q265 0 255 0T221 1T157 2Q127 2 95 1T58 0Q43 0 39 2T35 11Q35 13 38 25T43 40Q45 46 65 46Q135 46 154 86Q158 92 223 354T289 629Z"></path><path id="MJX-46-TEX-N-73" d="M295 316Q295 356 268 385T190 414Q154 414 128 401Q98 382 98 349Q97 344 98 336T114 312T157 287Q175 282 201 278T245 269T277 256Q294 248 310 236T342 195T359 133Q359 71 321 31T198 -10H190Q138 -10 94 26L86 19L77 10Q71 4 65 -1L54 -11H46H42Q39 -11 33 -5V74V132Q33 153 35 157T45 162H54Q66 162 70 158T75 146T82 119T101 77Q136 26 198 26Q295 26 295 104Q295 133 277 151Q257 175 194 187T111 210Q75 227 54 256T33 318Q33 357 50 384T93 424T143 442T187 447H198Q238 447 268 432L283 424L292 431Q302 440 314 448H322H326Q329 448 335 442V310L329 304H301Q295 310 295 316Z"></path><path id="MJX-46-TEX-N-65" d="M28 218Q28 273 48 318T98 391T163 433T229 448Q282 448 320 430T378 380T406 316T415 245Q415 238 408 231H126V216Q126 68 226 36Q246 30 270 30Q312 30 342 62Q359 79 369 104L379 128Q382 131 395 131H398Q415 131 415 121Q415 117 412 108Q393 53 349 21T250 -11Q155 -11 92 58T28 218ZM333 275Q322 403 238 411H236Q228 411 220 410T195 402T166 381T143 340T127 274V267H333V275Z"></path><path id="MJX-46-TEX-N-63" d="M370 305T349 305T313 320T297 358Q297 381 312 396Q317 401 317 402T307 404Q281 408 258 408Q209 408 178 376Q131 329 131 219Q131 137 162 90Q203 29 272 29Q313 29 338 55T374 117Q376 125 379 127T395 129H409Q415 123 415 120Q415 116 411 104T395 71T366 33T318 2T249 -11Q163 -11 99 53T34 214Q34 318 99 383T250 448T370 421T404 357Q404 334 387 320Z"></path><path id="MJX-46-TEX-N-2061" d=""></path><path id="MJX-46-TEX-I-1D441" d="M234 637Q231 637 226 637Q201 637 196 638T191 649Q191 676 202 682Q204 683 299 683Q376 683 387 683T401 677Q612 181 616 168L670 381Q723 592 723 606Q723 633 659 637Q635 637 635 648Q635 650 637 660Q641 676 643 679T653 683Q656 683 684 682T767 680Q817 680 843 681T873 682Q888 682 888 672Q888 650 880 642Q878 637 858 637Q787 633 769 597L620 7Q618 0 599 0Q585 0 582 2Q579 5 453 305L326 604L261 344Q196 88 196 79Q201 46 268 46H278Q284 41 284 38T282 19Q278 6 272 0H259Q228 2 151 2Q123 2 100 2T63 2T46 1Q31 1 31 10Q31 14 34 26T39 40Q41 46 62 46Q130 49 150 85Q154 91 221 362L289 634Q287 635 234 637Z"></path><path id="MJX-46-TEX-I-1D463" d="M173 380Q173 405 154 405Q130 405 104 376T61 287Q60 286 59 284T58 281T56 279T53 278T49 278T41 278H27Q21 284 21 287Q21 294 29 316T53 368T97 419T160 441Q202 441 225 417T249 361Q249 344 246 335Q246 329 231 291T200 202T182 113Q182 86 187 69Q200 26 250 26Q287 26 319 60T369 139T398 222T409 277Q409 300 401 317T383 343T365 361T357 383Q357 405 376 424T417 443Q436 443 451 425T467 367Q467 340 455 284T418 159T347 40T241 -11Q177 -11 139 22Q102 54 102 117Q102 148 110 181T151 298Q173 362 173 380Z"></path><path id="MJX-46-TEX-I-1D45B" d="M21 287Q22 293 24 303T36 341T56 388T89 425T135 442Q171 442 195 424T225 390T231 369Q231 367 232 367L243 378Q304 442 382 442Q436 442 469 415T503 336T465 179T427 52Q427 26 444 26Q450 26 453 27Q482 32 505 65T540 145Q542 153 560 153Q580 153 580 145Q580 144 576 130Q568 101 554 73T508 17T439 -10Q392 -10 371 17T350 73Q350 92 386 193T423 345Q423 404 379 404H374Q288 404 229 303L222 291L189 157Q156 26 151 16Q138 -11 108 -11Q95 -11 87 -5T76 7T74 17Q74 30 112 180T152 343Q153 348 153 366Q153 405 129 405Q91 405 66 305Q60 285 60 284Q58 278 41 278H27Q21 284 21 287Z"></path><path id="MJX-46-TEX-I-1D438" d="M492 213Q472 213 472 226Q472 230 477 250T482 285Q482 316 461 323T364 330H312Q311 328 277 192T243 52Q243 48 254 48T334 46Q428 46 458 48T518 61Q567 77 599 117T670 248Q680 270 683 272Q690 274 698 274Q718 274 718 261Q613 7 608 2Q605 0 322 0H133Q31 0 31 11Q31 13 34 25Q38 41 42 43T65 46Q92 46 125 49Q139 52 144 61Q146 66 215 342T285 622Q285 629 281 629Q273 632 228 634H197Q191 640 191 642T193 659Q197 676 203 680H757Q764 676 764 669Q764 664 751 557T737 447Q735 440 717 440H705Q698 445 698 453L701 476Q704 500 704 528Q704 558 697 578T678 609T643 625T596 632T532 634H485Q397 633 392 631Q388 629 386 622Q385 619 355 499T324 377Q347 376 372 376H398Q464 376 489 391T534 472Q538 488 540 490T557 493Q562 493 565 493T570 492T572 491T574 487T577 483L544 351Q511 218 508 216Q505 213 492 213Z"></path><path id="MJX-46-TEX-I-1D442" d="M740 435Q740 320 676 213T511 42T304 -22Q207 -22 138 35T51 201Q50 209 50 244Q50 346 98 438T227 601Q351 704 476 704Q514 704 524 703Q621 689 680 617T740 435ZM637 476Q637 565 591 615T476 665Q396 665 322 605Q242 542 200 428T157 216Q157 126 200 73T314 19Q404 19 485 98T608 313Q637 408 637 476Z"></path><path id="MJX-46-TEX-I-1D448" d="M107 637Q73 637 71 641Q70 643 70 649Q70 673 81 682Q83 683 98 683Q139 681 234 681Q268 681 297 681T342 682T362 682Q378 682 378 672Q378 670 376 658Q371 641 366 638H364Q362 638 359 638T352 638T343 637T334 637Q295 636 284 634T266 623Q265 621 238 518T184 302T154 169Q152 155 152 140Q152 86 183 55T269 24Q336 24 403 69T501 205L552 406Q599 598 599 606Q599 633 535 637Q511 637 511 648Q511 650 513 660Q517 676 519 679T529 683Q532 683 561 682T645 680Q696 680 723 681T752 682Q767 682 767 672Q767 650 759 642Q756 637 737 637Q666 633 648 597Q646 592 598 404Q557 235 548 205Q515 105 433 42T263 -22Q171 -22 116 34T60 167V183Q60 201 115 421Q164 622 164 628Q164 635 107 637Z"></path><path id="MJX-46-TEX-B-1D40C" d="M314 0Q296 3 181 3T48 0H39V62H147V624H39V686H305Q316 679 323 667Q330 653 434 414L546 157L658 414Q766 662 773 674Q778 681 788 686H1052V624H944V62H1052V0H1040Q1016 3 874 3T708 0H696V62H804V341L803 618L786 580Q770 543 735 462T671 315Q540 13 536 9Q528 1 507 1Q485 1 477 9Q472 14 408 162T281 457T217 603Q215 603 215 334V62H323V0H314Z"></path><path id="MJX-46-TEX-I-1D45D" d="M23 287Q24 290 25 295T30 317T40 348T55 381T75 411T101 433T134 442Q209 442 230 378L240 387Q302 442 358 442Q423 442 460 395T497 281Q497 173 421 82T249 -10Q227 -10 210 -4Q199 1 187 11T168 28L161 36Q160 35 139 -51T118 -138Q118 -144 126 -145T163 -148H188Q194 -155 194 -157T191 -175Q188 -187 185 -190T172 -194Q170 -194 161 -194T127 -193T65 -192Q-5 -192 -24 -194H-32Q-39 -187 -39 -183Q-37 -156 -26 -148H-6Q28 -147 33 -136Q36 -130 94 103T155 350Q156 355 156 364Q156 405 131 405Q109 405 94 377T71 316T59 280Q57 278 43 278H29Q23 284 23 287ZM178 102Q200 26 252 26Q282 26 310 49T356 107Q374 141 392 215T411 325V331Q411 405 350 405Q339 405 328 402T306 393T286 380T269 365T254 350T243 336T235 326L232 322Q232 321 229 308T218 264T204 212Q178 106 178 102Z"></path><path id="MJX-46-TEX-B-1D42F" d="M401 444Q413 441 495 441Q568 441 574 444H580V382H510L409 156Q348 18 339 6Q331 -4 320 -4Q318 -4 313 -4T303 -3H288Q273 -3 264 12T221 102Q206 135 197 156L96 382H26V444H34Q49 441 145 441Q252 441 270 444H279V382H231L284 264Q335 149 338 149Q338 150 389 264T442 381Q442 382 418 382H394V444H401Z"></path></defs><g stroke="currentColor" fill="currentColor" stroke-width="0" transform="scale(1,-1)"><g data-mml-node="math"><g data-mml-node="msub"><g data-mml-node="TeXAtom" data-mjx-texclass="ORD"><g data-mml-node="TeXAtom" data-mjx-texclass="ORD"><g data-mml-node="mover"><g data-mml-node="TeXAtom" data-mjx-texclass="ORD"><g data-mml-node="mi"><use data-c="1D429" xlink:href="#MJX-46-TEX-B-1D429"></use></g></g><g data-mml-node="mo" transform="translate(319.5,6) translate(-250 0)"><use data-c="2D9" xlink:href="#MJX-46-TEX-N-2D9"></use></g></g></g></g><g data-mml-node="TeXAtom" transform="translate(672,-150) scale(0.707)" data-mjx-texclass="ORD"><g data-mml-node="mi"><use data-c="1D437" xlink:href="#MJX-46-TEX-I-1D437"></use></g><g data-mml-node="mi" transform="translate(828,0)"><use data-c="1D445" xlink:href="#MJX-46-TEX-I-1D445"></use></g></g></g><g data-mml-node="mo" transform="translate(2122,0)"><use data-c="3D" xlink:href="#MJX-46-TEX-N-3D"></use></g><g data-mml-node="mrow" transform="translate(3177.7,0)"><g data-mml-node="mo"><use data-c="23A1" xlink:href="#MJX-46-TEX-S4-23A1" transform="translate(0,1394)"></use><use data-c="23A3" xlink:href="#MJX-46-TEX-S4-23A3" transform="translate(0,-1404)"></use><svg width="667" height="1198" y="-349" x="0" viewBox="0 299.5 667 1198"><use data-c="23A2" xlink:href="#MJX-46-TEX-S4-23A2" transform="scale(1,2.985)"></use></svg></g><g data-mml-node="mtable" transform="translate(667,0)"><g data-mml-node="mtr" transform="translate(0,1540)"><g data-mml-node="mtd"><g data-mml-node="msub"><g data-mml-node="TeXAtom" data-mjx-texclass="ORD"><g data-mml-node="TeXAtom" data-mjx-texclass="ORD"><g data-mml-node="mover"><g data-mml-node="mi"><use data-c="1D43F" xlink:href="#MJX-46-TEX-I-1D43F"></use></g><g data-mml-node="mo" transform="translate(368.3,239) translate(-250 0)"><use data-c="2D9" xlink:href="#MJX-46-TEX-N-2D9"></use></g></g></g></g><g data-mml-node="TeXAtom" transform="translate(714,-150) scale(0.707)" data-mjx-texclass="ORD"><g data-mml-node="mi"><use data-c="1D437" xlink:href="#MJX-46-TEX-I-1D437"></use></g><g data-mml-node="mi" transform="translate(828,0)"><use data-c="1D445" xlink:href="#MJX-46-TEX-I-1D445"></use></g></g></g></g></g><g data-mml-node="mtr" transform="translate(0,-129)"><g data-mml-node="mtd" transform="translate(49,0)"><g data-mml-node="msub"><g data-mml-node="TeXAtom" data-mjx-texclass="ORD"><g data-mml-node="TeXAtom" data-mjx-texclass="ORD"><g data-mml-node="mover"><g data-mml-node="mi"><use data-c="1D706" xlink:href="#MJX-46-TEX-I-1D706"></use></g><g data-mml-node="mo" transform="translate(291.5,250) translate(-250 0)"><use data-c="2D9" xlink:href="#MJX-46-TEX-N-2D9"></use></g></g></g></g><g data-mml-node="TeXAtom" transform="translate(616,-150) scale(0.707)" data-mjx-texclass="ORD"><g data-mml-node="mi"><use data-c="1D437" xlink:href="#MJX-46-TEX-I-1D437"></use></g><g data-mml-node="mi" transform="translate(828,0)"><use data-c="1D445" xlink:href="#MJX-46-TEX-I-1D445"></use></g></g></g></g></g><g data-mml-node="mtr" transform="translate(0,-1798)"><g data-mml-node="mtd" transform="translate(52.5,0)"><g data-mml-node="msub"><g data-mml-node="TeXAtom" data-mjx-texclass="ORD"><g data-mml-node="TeXAtom" data-mjx-texclass="ORD"><g data-mml-node="mover"><g data-mml-node="mi"><use data-c="210E" xlink:href="#MJX-46-TEX-I-210E"></use></g><g data-mml-node="mo" transform="translate(260.2,250) translate(-250 0)"><use data-c="2D9" xlink:href="#MJX-46-TEX-N-2D9"></use></g></g></g></g><g data-mml-node="TeXAtom" transform="translate(609,-150) scale(0.707)" data-mjx-texclass="ORD"><g data-mml-node="mi"><use data-c="1D437" xlink:href="#MJX-46-TEX-I-1D437"></use></g><g data-mml-node="mi" transform="translate(828,0)"><use data-c="1D445" xlink:href="#MJX-46-TEX-I-1D445"></use></g></g></g></g></g></g><g data-mml-node="mo" transform="translate(2553.2,0)"><use data-c="23A4" xlink:href="#MJX-46-TEX-S4-23A4" transform="translate(0,1394)"></use><use data-c="23A6" xlink:href="#MJX-46-TEX-S4-23A6" transform="translate(0,-1404)"></use><svg width="667" height="1198" y="-349" x="0" viewBox="0 299.5 667 1198"><use data-c="23A5" xlink:href="#MJX-46-TEX-S4-23A5" transform="scale(1,2.985)"></use></svg></g></g><g data-mml-node="mo" transform="translate(6675.7,0)"><use data-c="3D" xlink:href="#MJX-46-TEX-N-3D"></use></g><g data-mml-node="mrow" transform="translate(7731.5,0)"><g data-mml-node="mo"><use data-c="23A1" xlink:href="#MJX-46-TEX-S4-23A1" transform="translate(0,996)"></use><use data-c="23A3" xlink:href="#MJX-46-TEX-S4-23A3" transform="translate(0,-1006)"></use><svg width="667" height="402" y="49" x="0" viewBox="0 100.5 667 402"><use data-c="23A2" xlink:href="#MJX-46-TEX-S4-23A2" transform="scale(1,1.002)"></use></svg></g><g data-mml-node="mtable" transform="translate(667,0)"><g data-mml-node="mtr" transform="translate(0,1400)"><g data-mml-node="mtd" transform="translate(3167.1,0)"><g data-mml-node="mn"><use data-c="30" xlink:href="#MJX-46-TEX-N-30"></use></g></g><g data-mml-node="mtd" transform="translate(7834.2,0)"><g data-mml-node="mn"><use data-c="31" xlink:href="#MJX-46-TEX-N-31"></use></g><g data-mml-node="TeXAtom" data-mjx-texclass="ORD" transform="translate(500,0)"><g data-mml-node="mo"><use data-c="2F" xlink:href="#MJX-46-TEX-N-2F"></use></g></g><g data-mml-node="msub" transform="translate(1000,0)"><g data-mml-node="mi"><use data-c="1D445" xlink:href="#MJX-46-TEX-I-1D445"></use></g><g data-mml-node="TeXAtom" transform="translate(792,-150) scale(0.707)" data-mjx-texclass="ORD"><g data-mml-node="mi"><use data-c="1D440" xlink:href="#MJX-46-TEX-I-1D440"></use></g><g data-mml-node="mi" transform="translate(1051,0)"><use data-c="210E" xlink:href="#MJX-46-TEX-I-210E"></use></g><g data-mml-node="mi" transform="translate(1627,0)"><use data-c="1D437" xlink:href="#MJX-46-TEX-I-1D437"></use></g><g data-mml-node="mi" transform="translate(2455,0)"><use data-c="1D445" xlink:href="#MJX-46-TEX-I-1D445"></use></g></g></g></g><g data-mml-node="mtd" transform="translate(12948.9,0)"><g data-mml-node="mn"><use data-c="30" xlink:href="#MJX-46-TEX-N-30"></use></g></g></g><g data-mml-node="mtr"><g data-mml-node="mtd"><g data-mml-node="mi"><use data-c="73" xlink:href="#MJX-46-TEX-N-73"></use><use data-c="65" xlink:href="#MJX-46-TEX-N-65" transform="translate(394,0)"></use><use data-c="63" xlink:href="#MJX-46-TEX-N-63" transform="translate(838,0)"></use></g><g data-mml-node="mo" transform="translate(1282,0)"><use data-c="2061" xlink:href="#MJX-46-TEX-N-2061"></use></g><g data-mml-node="msub" transform="translate(1448.7,0)"><g data-mml-node="mi"><use data-c="1D43F" xlink:href="#MJX-46-TEX-I-1D43F"></use></g><g data-mml-node="TeXAtom" transform="translate(714,-150) scale(0.707)" data-mjx-texclass="ORD"><g data-mml-node="mi"><use data-c="1D437" xlink:href="#MJX-46-TEX-I-1D437"></use></g><g data-mml-node="mi" transform="translate(828,0)"><use data-c="1D445" xlink:href="#MJX-46-TEX-I-1D445"></use></g></g></g><g data-mml-node="TeXAtom" data-mjx-texclass="ORD" transform="translate(3334.8,0)"><g data-mml-node="mo"><use data-c="2F" xlink:href="#MJX-46-TEX-N-2F"></use></g></g><g data-mml-node="msub" transform="translate(3834.8,0)"><g data-mml-node="mi"><use data-c="1D445" xlink:href="#MJX-46-TEX-I-1D445"></use></g><g data-mml-node="TeXAtom" transform="translate(792,-150) scale(0.707)" data-mjx-texclass="ORD"><g data-mml-node="mi"><use data-c="1D441" xlink:href="#MJX-46-TEX-I-1D441"></use></g><g data-mml-node="mi" transform="translate(888,0)"><use data-c="210E" xlink:href="#MJX-46-TEX-I-210E"></use></g><g data-mml-node="mi" transform="translate(1464,0)"><use data-c="1D437" xlink:href="#MJX-46-TEX-I-1D437"></use></g><g data-mml-node="mi" transform="translate(2292,0)"><use data-c="1D445" xlink:href="#MJX-46-TEX-I-1D445"></use></g></g></g></g><g data-mml-node="mtd" transform="translate(9641.5,0)"><g data-mml-node="mn"><use data-c="30" xlink:href="#MJX-46-TEX-N-30"></use></g></g><g data-mml-node="mtd" transform="translate(12948.9,0)"><g data-mml-node="mn"><use data-c="30" xlink:href="#MJX-46-TEX-N-30"></use></g></g></g><g data-mml-node="mtr" transform="translate(0,-1400)"><g data-mml-node="mtd" transform="translate(3167.1,0)"><g data-mml-node="mn"><use data-c="30" xlink:href="#MJX-46-TEX-N-30"></use></g></g><g data-mml-node="mtd" transform="translate(9641.5,0)"><g data-mml-node="mn"><use data-c="30" xlink:href="#MJX-46-TEX-N-30"></use></g></g><g data-mml-node="mtd" transform="translate(12948.9,0)"><g data-mml-node="mn"><use data-c="31" xlink:href="#MJX-46-TEX-N-31"></use></g></g></g></g><g data-mml-node="mo" transform="translate(14115.9,0)"><use data-c="23A4" xlink:href="#MJX-46-TEX-S4-23A4" transform="translate(0,996)"></use><use data-c="23A6" xlink:href="#MJX-46-TEX-S4-23A6" transform="translate(0,-1006)"></use><svg width="667" height="402" y="49" x="0" viewBox="0 100.5 667 402"><use data-c="23A5" xlink:href="#MJX-46-TEX-S4-23A5" transform="scale(1,1.002)"></use></svg></g></g><g data-mml-node="mrow" transform="translate(22681,0)"><g data-mml-node="mo"><use data-c="23A1" xlink:href="#MJX-46-TEX-S4-23A1" transform="translate(0,1128.2)"></use><use data-c="23A3" xlink:href="#MJX-46-TEX-S4-23A3" transform="translate(0,-1138.2)"></use><svg width="667" height="666.4" y="-83.2" x="0" viewBox="0 166.6 667 666.4"><use data-c="23A2" xlink:href="#MJX-46-TEX-S4-23A2" transform="scale(1,1.66)"></use></svg></g><g data-mml-node="mtable" transform="translate(667,0)"><g data-mml-node="mtr" transform="translate(0,1532.2)"><g data-mml-node="mtd" transform="translate(43.8,0)"><g data-mml-node="msubsup"><g data-mml-node="mi"><use data-c="1D463" xlink:href="#MJX-46-TEX-I-1D463"></use></g><g data-mml-node="TeXAtom" transform="translate(518,363) scale(0.707)" data-mjx-texclass="ORD"><g data-mml-node="mi"><use data-c="1D45B" xlink:href="#MJX-46-TEX-I-1D45B"></use></g></g><g data-mml-node="TeXAtom" transform="translate(518,-322.6) scale(0.707)" data-mjx-texclass="ORD"><g data-mml-node="mi"><use data-c="1D438" xlink:href="#MJX-46-TEX-I-1D438"></use></g><g data-mml-node="mi" transform="translate(764,0)"><use data-c="1D442" xlink:href="#MJX-46-TEX-I-1D442"></use></g><g data-mml-node="mi" transform="translate(1527,0)"><use data-c="1D437" xlink:href="#MJX-46-TEX-I-1D437"></use></g></g></g></g></g><g data-mml-node="mtr" transform="translate(0,44.1)"><g data-mml-node="mtd"><g data-mml-node="msubsup"><g data-mml-node="mi"><use data-c="1D463" xlink:href="#MJX-46-TEX-I-1D463"></use></g><g data-mml-node="TeXAtom" transform="translate(518,363) scale(0.707)" data-mjx-texclass="ORD"><g data-mml-node="mi"><use data-c="1D45B" xlink:href="#MJX-46-TEX-I-1D45B"></use></g></g><g data-mml-node="TeXAtom" transform="translate(518,-322.6) scale(0.707)" data-mjx-texclass="ORD"><g data-mml-node="mi"><use data-c="1D441" xlink:href="#MJX-46-TEX-I-1D441"></use></g><g data-mml-node="mi" transform="translate(888,0)"><use data-c="1D442" xlink:href="#MJX-46-TEX-I-1D442"></use></g><g data-mml-node="mi" transform="translate(1651,0)"><use data-c="1D437" xlink:href="#MJX-46-TEX-I-1D437"></use></g></g></g></g></g><g data-mml-node="mtr" transform="translate(0,-1444.1)"><g data-mml-node="mtd" transform="translate(42.8,0)"><g data-mml-node="msubsup"><g data-mml-node="mi"><use data-c="1D463" xlink:href="#MJX-46-TEX-I-1D463"></use></g><g data-mml-node="TeXAtom" transform="translate(518,363) scale(0.707)" data-mjx-texclass="ORD"><g data-mml-node="mi"><use data-c="1D45B" xlink:href="#MJX-46-TEX-I-1D45B"></use></g></g><g data-mml-node="TeXAtom" transform="translate(518,-322.6) scale(0.707)" data-mjx-texclass="ORD"><g data-mml-node="mi"><use data-c="1D448" xlink:href="#MJX-46-TEX-I-1D448"></use></g><g data-mml-node="mi" transform="translate(767,0)"><use data-c="1D442" xlink:href="#MJX-46-TEX-I-1D442"></use></g><g data-mml-node="mi" transform="translate(1530,0)"><use data-c="1D437" xlink:href="#MJX-46-TEX-I-1D437"></use></g></g></g></g></g></g><g data-mml-node="mo" transform="translate(2987.9,0)"><use data-c="23A4" xlink:href="#MJX-46-TEX-S4-23A4" transform="translate(0,1128.2)"></use><use data-c="23A6" xlink:href="#MJX-46-TEX-S4-23A6" transform="translate(0,-1138.2)"></use><svg width="667" height="666.4" y="-83.2" x="0" viewBox="0 166.6 667 666.4"><use data-c="23A5" xlink:href="#MJX-46-TEX-S4-23A5" transform="scale(1,1.66)"></use></svg></g></g><g data-mml-node="mo" transform="translate(26613.7,0)"><use data-c="3D" xlink:href="#MJX-46-TEX-N-3D"></use></g><g data-mml-node="msub" transform="translate(27669.5,0)"><g data-mml-node="TeXAtom" data-mjx-texclass="ORD"><g data-mml-node="mi"><use data-c="1D40C" xlink:href="#MJX-46-TEX-B-1D40C"></use></g></g><g data-mml-node="TeXAtom" transform="translate(1125,-150) scale(0.707)" data-mjx-texclass="ORD"><g data-mml-node="mi"><use data-c="1D437" xlink:href="#MJX-46-TEX-I-1D437"></use></g><g data-mml-node="mi" transform="translate(828,0)"><use data-c="1D45D" xlink:href="#MJX-46-TEX-I-1D45D"></use></g><g data-mml-node="mi" transform="translate(1331,0)"><use data-c="1D463" xlink:href="#MJX-46-TEX-I-1D463"></use></g></g></g><g data-mml-node="msubsup" transform="translate(30128.6,0)"><g data-mml-node="TeXAtom" data-mjx-texclass="ORD"><g data-mml-node="mi"><use data-c="1D42F" xlink:href="#MJX-46-TEX-B-1D42F"></use></g></g><g data-mml-node="TeXAtom" transform="translate(640,413) scale(0.707)" data-mjx-texclass="ORD"><g data-mml-node="mi"><use data-c="1D45B" xlink:href="#MJX-46-TEX-I-1D45B"></use></g></g><g data-mml-node="TeXAtom" transform="translate(640,-272.6) scale(0.707)" data-mjx-texclass="ORD"><g data-mml-node="mi"><use data-c="1D442" xlink:href="#MJX-46-TEX-I-1D442"></use></g><g data-mml-node="mi" transform="translate(763,0)"><use data-c="1D437" xlink:href="#MJX-46-TEX-I-1D437"></use></g></g></g></g></g></svg>
<text class="eqno" x="970" y="53" text-anchor="end" dominant-baseline="middle">(10.6-2)</text>
</svg>
