<svg xmlns="http://www.w3.org/2000/svg" xmlns:xlink="http://www.w3.org/1999/xlink" width="1000" height="42" viewBox="0 0 1000 42" role="img" aria-labelledby="title desc">
<title id="title">Equation 10.5-2</title>
<desc id="desc">LaTeX source: \mathbf{p}_{GPS} = \mathbf{p}_{SINS} + \mathbf{M}_{pv}\mathbf{C}_{b}^{n}\mathbf{l}^{b}\qquad(10.5-2)</desc>
<style>svg{color:#1f2328}.eqno{fill:currentColor;font:18px "Times New Roman",serif}@media(prefers-color-scheme:dark){svg{color:#f0f6fc}}</style>
<svg x="389.516" y="9.416" width="220.968" height="23.168" viewBox="0 -903.7 11356.6 1190.9" preserveAspectRatio="xMidYMid meet"><defs><path id="MJX-35-TEX-B-1D429" d="M32 442L123 446Q214 450 215 450H221V409Q222 409 229 413T251 423T284 436T328 446T382 450Q480 450 540 388T600 223Q600 128 539 61T361 -6H354Q292 -6 236 28L227 34V-132H296V-194H287Q269 -191 163 -191Q56 -191 38 -194H29V-132H98V113V284Q98 330 97 348T93 370T83 376Q69 380 42 380H29V442H32ZM457 224Q457 303 427 349T350 395Q282 395 235 352L227 345V104L233 97Q274 45 337 45Q383 45 420 86T457 224Z"></path><path id="MJX-35-TEX-I-1D43A" d="M50 252Q50 367 117 473T286 641T490 704Q580 704 633 653Q642 643 648 636T656 626L657 623Q660 623 684 649Q691 655 699 663T715 679T725 690L740 705H746Q760 705 760 698Q760 694 728 561Q692 422 692 421Q690 416 687 415T669 413H653Q647 419 647 422Q647 423 648 429T650 449T651 481Q651 552 619 605T510 659Q492 659 471 656T418 643T357 615T294 567T236 496T189 394T158 260Q156 242 156 221Q156 173 170 136T206 79T256 45T308 28T353 24Q407 24 452 47T514 106Q517 114 529 161T541 214Q541 222 528 224T468 227H431Q425 233 425 235T427 254Q431 267 437 273H454Q494 271 594 271Q634 271 659 271T695 272T707 272Q721 272 721 263Q721 261 719 249Q714 230 709 228Q706 227 694 227Q674 227 653 224Q646 221 643 215T629 164Q620 131 614 108Q589 6 586 3Q584 1 581 1Q571 1 553 21T530 52Q530 53 528 52T522 47Q448 -22 322 -22Q201 -22 126 55T50 252Z"></path><path id="MJX-35-TEX-I-1D443" d="M287 628Q287 635 230 637Q206 637 199 638T192 648Q192 649 194 659Q200 679 203 681T397 683Q587 682 600 680Q664 669 707 631T751 530Q751 453 685 389Q616 321 507 303Q500 302 402 301H307L277 182Q247 66 247 59Q247 55 248 54T255 50T272 48T305 46H336Q342 37 342 35Q342 19 335 5Q330 0 319 0Q316 0 282 1T182 2Q120 2 87 2T51 1Q33 1 33 11Q33 13 36 25Q40 41 44 43T67 46Q94 46 127 49Q141 52 146 61Q149 65 218 339T287 628ZM645 554Q645 567 643 575T634 597T609 619T560 635Q553 636 480 637Q463 637 445 637T416 636T404 636Q391 635 386 627Q384 621 367 550T332 412T314 344Q314 342 395 342H407H430Q542 342 590 392Q617 419 631 471T645 554Z"></path><path id="MJX-35-TEX-I-1D446" d="M308 24Q367 24 416 76T466 197Q466 260 414 284Q308 311 278 321T236 341Q176 383 176 462Q176 523 208 573T273 648Q302 673 343 688T407 704H418H425Q521 704 564 640Q565 640 577 653T603 682T623 704Q624 704 627 704T632 705Q645 705 645 698T617 577T585 459T569 456Q549 456 549 465Q549 471 550 475Q550 478 551 494T553 520Q553 554 544 579T526 616T501 641Q465 662 419 662Q362 662 313 616T263 510Q263 480 278 458T319 427Q323 425 389 408T456 390Q490 379 522 342T554 242Q554 216 546 186Q541 164 528 137T492 78T426 18T332 -20Q320 -22 298 -22Q199 -22 144 33L134 44L106 13Q83 -14 78 -18T65 -22Q52 -22 52 -14Q52 -11 110 221Q112 227 130 227H143Q149 221 149 216Q149 214 148 207T144 186T142 153Q144 114 160 87T203 47T255 29T308 24Z"></path><path id="MJX-35-TEX-N-3D" d="M56 347Q56 360 70 367H707Q722 359 722 347Q722 336 708 328L390 327H72Q56 332 56 347ZM56 153Q56 168 72 173H708Q722 163 722 153Q722 140 707 133H70Q56 140 56 153Z"></path><path id="MJX-35-TEX-I-1D43C" d="M43 1Q26 1 26 10Q26 12 29 24Q34 43 39 45Q42 46 54 46H60Q120 46 136 53Q137 53 138 54Q143 56 149 77T198 273Q210 318 216 344Q286 624 286 626Q284 630 284 631Q274 637 213 637H193Q184 643 189 662Q193 677 195 680T209 683H213Q285 681 359 681Q481 681 487 683H497Q504 676 504 672T501 655T494 639Q491 637 471 637Q440 637 407 634Q393 631 388 623Q381 609 337 432Q326 385 315 341Q245 65 245 59Q245 52 255 50T307 46H339Q345 38 345 37T342 19Q338 6 332 0H316Q279 2 179 2Q143 2 113 2T65 2T43 1Z"></path><path id="MJX-35-TEX-I-1D441" d="M234 637Q231 637 226 637Q201 637 196 638T191 649Q191 676 202 682Q204 683 299 683Q376 683 387 683T401 677Q612 181 616 168L670 381Q723 592 723 606Q723 633 659 637Q635 637 635 648Q635 650 637 660Q641 676 643 679T653 683Q656 683 684 682T767 680Q817 680 843 681T873 682Q888 682 888 672Q888 650 880 642Q878 637 858 637Q787 633 769 597L620 7Q618 0 599 0Q585 0 582 2Q579 5 453 305L326 604L261 344Q196 88 196 79Q201 46 268 46H278Q284 41 284 38T282 19Q278 6 272 0H259Q228 2 151 2Q123 2 100 2T63 2T46 1Q31 1 31 10Q31 14 34 26T39 40Q41 46 62 46Q130 49 150 85Q154 91 221 362L289 634Q287 635 234 637Z"></path><path id="MJX-35-TEX-N-2B" d="M56 237T56 250T70 270H369V420L370 570Q380 583 389 583Q402 583 409 568V270H707Q722 262 722 250T707 230H409V-68Q401 -82 391 -82H389H387Q375 -82 369 -68V230H70Q56 237 56 250Z"></path><path id="MJX-35-TEX-B-1D40C" d="M314 0Q296 3 181 3T48 0H39V62H147V624H39V686H305Q316 679 323 667Q330 653 434 414L546 157L658 414Q766 662 773 674Q778 681 788 686H1052V624H944V62H1052V0H1040Q1016 3 874 3T708 0H696V62H804V341L803 618L786 580Q770 543 735 462T671 315Q540 13 536 9Q528 1 507 1Q485 1 477 9Q472 14 408 162T281 457T217 603Q215 603 215 334V62H323V0H314Z"></path><path id="MJX-35-TEX-I-1D45D" d="M23 287Q24 290 25 295T30 317T40 348T55 381T75 411T101 433T134 442Q209 442 230 378L240 387Q302 442 358 442Q423 442 460 395T497 281Q497 173 421 82T249 -10Q227 -10 210 -4Q199 1 187 11T168 28L161 36Q160 35 139 -51T118 -138Q118 -144 126 -145T163 -148H188Q194 -155 194 -157T191 -175Q188 -187 185 -190T172 -194Q170 -194 161 -194T127 -193T65 -192Q-5 -192 -24 -194H-32Q-39 -187 -39 -183Q-37 -156 -26 -148H-6Q28 -147 33 -136Q36 -130 94 103T155 350Q156 355 156 364Q156 405 131 405Q109 405 94 377T71 316T59 280Q57 278 43 278H29Q23 284 23 287ZM178 102Q200 26 252 26Q282 26 310 49T356 107Q374 141 392 215T411 325V331Q411 405 350 405Q339 405 328 402T306 393T286 380T269 365T254 350T243 336T235 326L232 322Q232 321 229 308T218 264T204 212Q178 106 178 102Z"></path><path id="MJX-35-TEX-I-1D463" d="M173 380Q173 405 154 405Q130 405 104 376T61 287Q60 286 59 284T58 281T56 279T53 278T49 278T41 278H27Q21 284 21 287Q21 294 29 316T53 368T97 419T160 441Q202 441 225 417T249 361Q249 344 246 335Q246 329 231 291T200 202T182 113Q182 86 187 69Q200 26 250 26Q287 26 319 60T369 139T398 222T409 277Q409 300 401 317T383 343T365 361T357 383Q357 405 376 424T417 443Q436 443 451 425T467 367Q467 340 455 284T418 159T347 40T241 -11Q177 -11 139 22Q102 54 102 117Q102 148 110 181T151 298Q173 362 173 380Z"></path><path id="MJX-35-TEX-B-1D402" d="M64 343Q64 502 174 599T468 697Q502 697 533 691T586 674T623 655T647 639T657 632L694 663Q703 670 711 677T723 687T730 692T735 695T740 696T746 697Q759 697 762 692T766 668V627V489V449Q766 428 762 424T742 419H732H720Q699 419 697 436Q690 498 657 545Q611 618 532 632Q522 634 496 634Q356 634 286 553Q232 488 232 343T286 133Q355 52 497 52Q597 52 650 112T704 237Q704 248 709 251T729 254H735Q750 254 755 253T763 248T766 234Q766 136 680 63T469 -11Q285 -11 175 86T64 343Z"></path><path id="MJX-35-TEX-I-1D45B" d="M21 287Q22 293 24 303T36 341T56 388T89 425T135 442Q171 442 195 424T225 390T231 369Q231 367 232 367L243 378Q304 442 382 442Q436 442 469 415T503 336T465 179T427 52Q427 26 444 26Q450 26 453 27Q482 32 505 65T540 145Q542 153 560 153Q580 153 580 145Q580 144 576 130Q568 101 554 73T508 17T439 -10Q392 -10 371 17T350 73Q350 92 386 193T423 345Q423 404 379 404H374Q288 404 229 303L222 291L189 157Q156 26 151 16Q138 -11 108 -11Q95 -11 87 -5T76 7T74 17Q74 30 112 180T152 343Q153 348 153 366Q153 405 129 405Q91 405 66 305Q60 285 60 284Q58 278 41 278H27Q21 284 21 287Z"></path><path id="MJX-35-TEX-I-1D44F" d="M73 647Q73 657 77 670T89 683Q90 683 161 688T234 694Q246 694 246 685T212 542Q204 508 195 472T180 418L176 399Q176 396 182 402Q231 442 283 442Q345 442 383 396T422 280Q422 169 343 79T173 -11Q123 -11 82 27T40 150V159Q40 180 48 217T97 414Q147 611 147 623T109 637Q104 637 101 637H96Q86 637 83 637T76 640T73 647ZM336 325V331Q336 405 275 405Q258 405 240 397T207 376T181 352T163 330L157 322L136 236Q114 150 114 114Q114 66 138 42Q154 26 178 26Q211 26 245 58Q270 81 285 114T318 219Q336 291 336 325Z"></path><path id="MJX-35-TEX-B-1D425" d="M43 686L134 690Q225 694 226 694H232V62H301V0H292Q274 3 170 3Q67 3 49 0H40V62H109V332Q109 387 109 453T110 534Q110 593 108 605T94 620Q80 624 53 624H40V686H43Z"></path></defs><g stroke="currentColor" fill="currentColor" stroke-width="0" transform="scale(1,-1)"><g data-mml-node="math"><g data-mml-node="msub"><g data-mml-node="TeXAtom" data-mjx-texclass="ORD"><g data-mml-node="mi"><use data-c="1D429" xlink:href="#MJX-35-TEX-B-1D429"></use></g></g><g data-mml-node="TeXAtom" transform="translate(672,-150) scale(0.707)" data-mjx-texclass="ORD"><g data-mml-node="mi"><use data-c="1D43A" xlink:href="#MJX-35-TEX-I-1D43A"></use></g><g data-mml-node="mi" transform="translate(786,0)"><use data-c="1D443" xlink:href="#MJX-35-TEX-I-1D443"></use></g><g data-mml-node="mi" transform="translate(1537,0)"><use data-c="1D446" xlink:href="#MJX-35-TEX-I-1D446"></use></g></g></g><g data-mml-node="mo" transform="translate(2542.7,0)"><use data-c="3D" xlink:href="#MJX-35-TEX-N-3D"></use></g><g data-mml-node="msub" transform="translate(3598.5,0)"><g data-mml-node="TeXAtom" data-mjx-texclass="ORD"><g data-mml-node="mi"><use data-c="1D429" xlink:href="#MJX-35-TEX-B-1D429"></use></g></g><g data-mml-node="TeXAtom" transform="translate(672,-150) scale(0.707)" data-mjx-texclass="ORD"><g data-mml-node="mi"><use data-c="1D446" xlink:href="#MJX-35-TEX-I-1D446"></use></g><g data-mml-node="mi" transform="translate(645,0)"><use data-c="1D43C" xlink:href="#MJX-35-TEX-I-1D43C"></use></g><g data-mml-node="mi" transform="translate(1149,0)"><use data-c="1D441" xlink:href="#MJX-35-TEX-I-1D441"></use></g><g data-mml-node="mi" transform="translate(2037,0)"><use data-c="1D446" xlink:href="#MJX-35-TEX-I-1D446"></use></g></g></g><g data-mml-node="mo" transform="translate(6439.1,0)"><use data-c="2B" xlink:href="#MJX-35-TEX-N-2B"></use></g><g data-mml-node="msub" transform="translate(7439.4,0)"><g data-mml-node="TeXAtom" data-mjx-texclass="ORD"><g data-mml-node="mi"><use data-c="1D40C" xlink:href="#MJX-35-TEX-B-1D40C"></use></g></g><g data-mml-node="TeXAtom" transform="translate(1125,-150) scale(0.707)" data-mjx-texclass="ORD"><g data-mml-node="mi"><use data-c="1D45D" xlink:href="#MJX-35-TEX-I-1D45D"></use></g><g data-mml-node="mi" transform="translate(503,0)"><use data-c="1D463" xlink:href="#MJX-35-TEX-I-1D463"></use></g></g></g><g data-mml-node="msubsup" transform="translate(9313,0)"><g data-mml-node="TeXAtom" data-mjx-texclass="ORD"><g data-mml-node="mi"><use data-c="1D402" xlink:href="#MJX-35-TEX-B-1D402"></use></g></g><g data-mml-node="TeXAtom" transform="translate(864,413) scale(0.707)" data-mjx-texclass="ORD"><g data-mml-node="mi"><use data-c="1D45B" xlink:href="#MJX-35-TEX-I-1D45B"></use></g></g><g data-mml-node="TeXAtom" transform="translate(864,-265.5) scale(0.707)" data-mjx-texclass="ORD"><g data-mml-node="mi"><use data-c="1D44F" xlink:href="#MJX-35-TEX-I-1D44F"></use></g></g></g><g data-mml-node="msup" transform="translate(10651.3,0)"><g data-mml-node="TeXAtom" data-mjx-texclass="ORD"><g data-mml-node="mi"><use data-c="1D425" xlink:href="#MJX-35-TEX-B-1D425"></use></g></g><g data-mml-node="TeXAtom" transform="translate(352,413) scale(0.707)" data-mjx-texclass="ORD"><g data-mml-node="mi"><use data-c="1D44F" xlink:href="#MJX-35-TEX-I-1D44F"></use></g></g></g></g></g></svg>
<text class="eqno" x="970" y="21" text-anchor="end" dominant-baseline="middle">(10.5-2)</text>
</svg>
